<svg xmlns="http://www.w3.org/2000/svg" width="1408" height="768"><path fill="#d07252" d="M650.313 220.25c17.09 17.38 22.175 36.49 22.041 60.223-.183 9.746-1.226 19.003-3.354 28.527l-.96 4.707c-7.073 32.375-20.174 63.472-32.13 94.27C625.162 435.739 616.55 463.523 612 493c5.248-4.284 9.601-8.855 14-14q2.31-2.47 4.625-4.937c5.454-5.976 10.294-12.363 15.164-18.817 2.8-3.702 5.642-7.358 8.524-10.996 4.63-5.867 9.167-11.8 13.687-17.75 5.404-7.112 10.843-14.19 16.39-21.191a733 733 0 0 0 5.657-7.274l3.015-3.91 2.723-3.555L698 388h2l2-4c4.507-5.149 9.27-10.057 14-15l2.656-2.82c17.45-18.089 39.72-32.653 65.508-33.282 19.956.802 33.255 9.376 46.961 23.29 8.394 9.881 13.023 21.41 17.813 33.312 11.38 28.154 11.38 28.154 23.062 33.5 13.093 3.273 25.211-1.35 36.555-7.773 13.97-9.029 27.411-20.928 37.383-34.29 4.721-6.07 9.484-9.475 17.062-10.937 6.89-.689 12.891.821 19 4 7.878 6.784 11.418 12.254 12.313 22.625-.922 12.9-7.748 20.308-16.313 29.375l-2.043 2.172c-24.164 25.487-55.284 49.313-91.796 50.367-22.15.152-41.81-5.957-58.161-21.539-14.4-15.12-22.432-33.4-30.256-52.478C790.41 391.808 790.41 391.808 785 387c-17.827 2.842-32.524 22.407-43 36l-3.23 4.078C730.83 437.157 723.317 447.464 716 458c-12.174 17.398-24.585 34.533-38 51l-2.324 2.914C669.783 519.256 663.462 526.156 657 533l-3.5 3.75c-16.142 14.99-33.782 24.714-56.137 24.523-12.555-.786-22.66-6.778-31.613-15.336-11.584-13.986-14.295-29.954-14.125-47.562l.03-4.59c.147-10.545.924-20.498 3.345-30.785l1.113-5.363C562.623 427.384 573.967 398.42 586 370c.73-1.726 1.46-3.452 2.21-5.23l1.915-4.52C621.646 285.788 621.646 285.788 614 262c-1-1-1-1-5-1.062-12.096 1.338-23.522 8.822-33 16.062l-4.25 3.188c-9.9 7.844-19.253 16.137-28.187 25.062l-2.258 2.255C509.635 339.495 485.13 378.988 465 419l-2.437 4.8c-4.912 9.986-8.872 20.116-12.382 30.662-2.383 6.994-4.704 13.319-11.118 17.413-4.987 1.832-7.81 2.438-13.063 1.125-5.683-2.841-8.789-6.366-11.437-12.125-7.36-50.7 35.09-117.552 63.062-155.43a630 630 0 0 1 4.953-6.37 332 332 0 0 0 4.844-6.305c5.24-6.984 10.813-13.458 16.816-19.797a122 122 0 0 0 5.492-6.352L512 264h2v-2h2v-2h2v-2h2l2-4c6.072-5.63 12.55-10.81 19-16l2.926-2.41c30.486-24.444 71.838-41.377 106.386-15.34"/><path fill="#d0704f" d="M796 403q4.04 1.39 8 3v2h-2l1 3 3 1v-4h2v4h2v2h2v10h2v2h2v2h2c1.25 3 1.25 3 2 6h-2l-1 5 3 1c.688 5.063.688 5.063 1 10-8.63-8.214-13.487-18.667-18.375-29.375l-1.3-2.845c-2.168-4.855-4.031-9.62-5.325-14.78"/><path fill="#d28468" d="m512 264 2 1-3 4-1 4-2 2h-3v2h-2l1 5-2 5h-1l-1 5c-5 3-5 3-10 2l-3 5h-2l-.437 3.063L484 305l-3-1v3h-2v4a278 278 0 0 1-5 5l-3.125 4.75C468 325 468 325 465 326c3.98-9.949 10.876-18.322 17.438-26.715a422 422 0 0 0 5-6.539c5.236-6.973 10.804-13.44 16.8-19.773C507 270 507 270 509.73 266.559z"/><path fill="#d38063" d="m592 248 4 1-1 5 5-1v5l4-1v2q4.5.063 9 0v1l-5.562 1.125c-7.12 1.537-13.164 4.416-19.614 7.742L585 270v-3h2v-2h3q.063-3.5 0-7h2l-1-4-1-4h2z"/><path fill="#ce6e4e" d="M574 410h2c.266 2.625.266 2.625.25 6l.016 3.375L576 422h-2v4h-2l1 3 1 3h-2l-1 4-1 2h-2v4l-5-1c0-5.94.908-8.846 4-14l1.063-3.812L569 420h2l1.5-5z"/><path fill="#d49078" d="M669 253c7.482 14.964 3.956 40.503 0 56h-1c.02-3.136.111-6.272.227-9.406l.187-5.88q.154-4.671.33-9.342c.112-2.988.204-5.977.295-8.966l.194-5.459L669 266h-3l-1-4 2-3h2z"/><path fill="#d38568" d="M796 403q4.04 1.39 8 3v2h-2l1 3 3 1v-4h2v4h2c.25 4.5.25 4.5 0 9h-2l.5 2.813C809 427 809 427 807 430a3177 3177 0 0 1-4.375-9.562l-2.46-5.38c-1.724-4.028-3.107-7.82-4.165-12.058"/><path fill="#d3896f" d="m721 443 4 2c-1.768 3.227-3.582 5.988-5.75 8.938l-1.843 2.59A819 819 0 0 1 712 464l-2.66 3.703A773 773 0 0 1 704 475l-1-4h2l.438-3.562c.185-1.135.37-2.27.562-3.438l3 1-.437-2.625C708 459 708 459 710 454h2l1-3h3l2-4h2z"/><path fill="#d5957e" d="M975 372c7.588 1.518 11.524 5.927 15.938 12.125 3.378 6.347 4.196 12.849 2.238 19.8-2.741 7.858-2.741 7.858-5.176 9.075.251-2.344.586-4.68 1-7h2c.082-3.465.082-3.465-.187-7.937l-.231-4.465L990 390l-3-1c-1.352-5.296-1.352-5.296 0-8l-5-1c-5.729-4.186-5.729-4.186-7-8"/><path fill="#d38c72" d="M749 412c0 4.34-2.54 5.925-5.36 8.973-4.626 5.304-8.758 10.997-12.98 16.625L728 441h-1v-6h2l1-2h-2v-3l5 1v-4h2l2-5c1.99-3.981 3.658-6.125 7-9z"/><path fill="#d59780" d="M492 287h1c-.312 3.5-.312 3.5-1 7h-2l-3 5h-2l-.437 3.063L484 305l-3-1v3h-2v4a278 278 0 0 1-5 5l-3.125 4.75C468 325 468 325 465 326c4.478-11.196 12.616-20.578 20-30l2.156-2.82A399 399 0 0 1 492 287"/><path fill="#d58d74" d="m594 211-1 2c-2.18.287-4.37.505-6.562.688-3.61.472-3.61.472-6.438 1.312-.312 3.625-.312 3.625 0 7l-3.75-.062L572 222c-2.375 4-2.375 4-4 8h-2l1-7h-2v2l-4-1c25.114-14.972 25.114-14.972 33-13"/><path fill="#d59076" d="M491 365h4c-1.893 4.732-4.09 8.522-6.812 12.813l-2.583 4.082L483 386l-2.762 4.512L478 394h-1c-.25-3.937-.25-3.937 0-8l3-1 1-3 2 1v-6h2l-1-4h2v-5q3.012.43 6 1z"/><path fill="#d2866a" d="m698 475 4 1c-2.029 4.057-4.368 7.496-7 11.188l-2.687 3.792C690 494 690 494 688 495c-1-4-1-4 0-9h2v-8h2l3 3 1-3h2z"/><path fill="#d38468" d="M755 343v3l-5 2-2 4c-2.665.089-5.334.078-8 0-3.5 1-3.5 1-6 2 5.543-6.079 12.236-12.678 21-11"/><path fill="#d39077" d="m511 336 4 1c-2.35 4.699-5.275 8.632-8.375 12.875-6.305 8.639-6.305 8.639-8.977 12.695L496 365h-1v-6l4-1v-5h2l1-5 3-3h2v-3h2v-3h2z"/><path fill="#d28e75" d="m796 334 3 3-5-.062c-3.345-.005-6.426.119-9.75.562-6.408.754-12.805.576-19.25.5l3-1v-2c9.297-2.208 18.545-2.632 28-1"/><path fill="#d58c71" d="M430 391h1c.188 4 .188 4 0 8h-2v5l2 1-1 3h2v2h-2l-2 4h-4l-2 3c.59-6.047 2.377-11.26 4.5-16.937.63-1.7 1.258-3.401 1.906-5.153z"/><path fill="#d2876c" d="m607 322 3 4-1 5 1 5h-2l-1-3-3 1-1 5h-1l-1 5-4 2c4.923-17.23 4.923-17.23 10-24"/><path fill="#d58e75" d="m910 414 2 1v3l-3-1-1 5h-6a131 131 0 0 0-7 4h-2l-1 4h-2v-2l-3-1 1-1-2-2a435 435 0 0 1 9.313-2.777c3.59-1.191 6.6-2.658 9.875-4.536z"/><path fill="#d69981" d="M452 346c1 4 1 4-1 8h-2l-.437 3.938L448 362l-3 1v5l-4 2 .563 3.063L442 376l-5 1c1.603-7.193 5.164-13.555 8.625-20l1.523-2.887c3.688-6.95 3.688-6.95 4.852-8.113"/><path fill="#d3876b" d="m531 246 2 1-2 4 4-1-2 3-1 5h-2v-2l-3.75 1.875C522 260 522 260 518 260v-2h2l2-4a282 282 0 0 1 8-7z"/><path fill="#d69880" d="M661 330h2c-1.101 7.578-3.401 14.493-6.062 21.625l-1.104 3.043A297 297 0 0 1 653 362h-1c-.74-8.134 1.123-16.497 6-23l1-4h2z"/><path fill="#d59076" d="M654 445c0 3 0 3-1 8h-3l1 2-1 3h-2l-.25 2.938L647 464c-3.062.75-3.062.75-6 1v2l-4 1c2.075-4.15 4.488-7.312 7.375-10.937l2.898-3.653L650 450l2.352-2.941z"/><path fill="#d79a82" d="M647 373c1.348 4.044.225 5.692-1.309 9.637l-1.513 3.935-1.615 4.115-1.604 4.15A2273 2273 0 0 1 637 405c-2-3-2-3-2-7h2l1-4h2a193 193 0 0 0 0-7c.375-3.937.375-3.937 1-7h2v-5h4z"/><path fill="#d79780" d="M635 212c5.685 1.28 9.497 4.426 14 8l2.688 2c2.816 2.436 5.1 5.007 7.312 8l-1 2c-5-3-5-3-7-8-2.687-1.062-2.687-1.062-6-2-3.875-2-3.875-2-7-4v-2l-3-3z"/><path fill="#d5937a" d="M764 393h4c-2.365 4.73-5.306 7.535-9.062 11.25l-3.848 3.828C752 411 752 411 751 411c-.812-2.875-.812-2.875-1-6l4-2 2-2h2v-2h2l1-3 3-1z"/><path fill="#d89b84" d="M467 405h4c-1.05 5.448-4.095 10.455-6.562 15.375l-2.442 4.898L460 429h-1v-6h2v-4h2c.044-2.333.04-4.667 0-7l1-3h3z"/><path fill="#d6937a" d="M596 346h1v6h-2l.563 3.688C596 360 596 360 593 365l-4 2-1 3-1-2a260 260 0 0 1 4.375-11.125l1.29-3.152A338 338 0 0 1 596 346"/><path fill="#dca895" d="M620 555h3v2c-13.096 5.118-26.75 6.258-40 1v-1a162 162 0 0 1 11 0v2c3.07.266 3.07.266 7.125.25l4.008.016c3.69-.254 6.405-1.058 9.867-2.266h5z"/><path fill="#d18a70" d="M973 425h5a182 182 0 0 1-16 17h-1v-5h2v-2h2v-2h2l1-3h3v-3h2z"/><path fill="#d49178" d="M818 345c3.936 1.968 6.013 3.775 9.063 6.875l2.597 2.617C832 357 832 357 835 361l-1 2-4-1v-3l-3-1v-3l-5-2c-3-4-3-4-4-8"/><path fill="#d6957c" d="M808 430h4c1.188 2.813 1.188 2.813 2 6l1 3 5 1c.813 5.063.813 5.063 1 10-3.834-3.579-6.599-7.205-9.312-11.687l-2.114-3.45C808 432 808 432 808 430"/></svg>