<svg xmlns="http://www.w3.org/2000/svg" width="1408" height="768"><path fill="#d16b4d" d="m320.914-.504 5.96-.03q6.22-.026 12.44-.022 6.274 0 12.547-.061C376.461-.856 400.066-.254 424 6l3.408.888C463.437 16.436 498.182 31.383 528 54l3.55 2.684C545.335 67.304 558.147 79.259 570 92v2h2c29.254 35.046 48.999 73.643 47 120-3.355 36.349-24.334 67.752-51.48 91.137A525 525 0 0 1 559 312l-2.89 2.371c-7.992 6.403-16.531 11.666-25.348 16.828a334 334 0 0 0-10.95 6.739c-6.05 3.757-12.35 6.95-18.687 10.187C481.458 358.219 460.746 369.254 445 385c8.856 17.713 37.208 29.154 53.777 38.793a815 815 0 0 1 46.66 29.27c9.782 6.587 19.58 12.975 29.938 18.625l2.802 1.545c9.09 4.8 18.443 7.89 28.823 6.767 2.625-1.812 2.625-1.812 5-5l1.758-2.184c25.594-32.971 34.528-78.912 44.157-118.586C675.789 281.122 704.169 207.44 750 147l2.988-4.016c6.6-8.777 13.459-17.022 21.012-24.984q2.97-3.248 5.938-6.5c8.36-9.03 16.784-17.708 26.433-25.367 2.539-2.06 4.925-4.218 7.317-6.445 38.497-34.921 88.89-58.488 138.875-71.313l3.09-.804C959.42 6.64 963.205 5.821 967 5l5.365-1.297c21.873-4.882 44.063-4.537 66.349-4.465q6.764.02 13.53-.04c27.643-.25 53.781.94 80.756 7.802l3.713.934c51.63 13.156 98.724 36.873 139.705 70.93a395 395 0 0 0 5.695 4.616l3.075 2.458 2.792 2.214L1290 90v2l4 2c6.785 6.22 13.058 12.977 19 20l2.55 2.957c45.26 52.771 72.058 117.418 85.575 185.106l.696 3.41c5.088 26.381 6.894 52.38 6.742 79.215l-.011 4.781c-.075 22.926-1.048 44.999-5.552 67.531q-.628 3.561-1.234 7.125C1394.763 504.184 1380.935 543.06 1362 579l-2.445 4.68A331 331 0 0 1 1328 632c-.628.808-1.256 1.616-1.902 2.45-7.85 9.968-16.029 19.67-25.098 28.55l-1.937 2.5c-2.974 3.605-6.536 6.44-10.063 9.5l-3.812 3.875c-4.82 4.747-9.89 8.929-15.188 13.125l-4.004 3.227c-52.663 41.851-123.43 73.233-191.601 73.242l-5.216.023q-5.434.016-10.868.009c-5.44-.001-10.878.04-16.317.085-21.187.072-41.227-1.407-61.994-5.586l-4.782-.874C946.094 756.731 917.142 747.858 890 736l-6.078-2.617c-22.64-9.81-45.013-20.2-66.25-32.813-3.498-2.056-7.066-3.981-10.633-5.914-9.843-5.364-19.58-10.866-29.074-16.828a137 137 0 0 0-5.711-3.344c-8.277-4.586-13.323-9.816-17.754-18.234-2.552-8.931-2.887-16.19 1.188-24.687 4.751-8.427 9.404-13.29 18.562-16.813 12.744-2.549 22.14.37 32.75 7.313l4.422 2.96c5.964 3.878 12.15 7.25 18.394 10.653a199 199 0 0 1 10.372 6.199c7.783 4.87 15.958 8.983 24.117 13.18 4.73 2.433 9.402 4.959 14.07 7.508C906.974 677.679 937.735 688.9 969 697l3.251.855c76.023 19.72 154.451 9.957 222.749-28.855 11.568-6.894 22.375-14.74 33-23l2.883-2.23c9.612-7.647 19.738-15.931 27.117-25.77h2l2-4q3.492-3.508 7-7c59.032-72.533 84.088-165.037 75.355-257.596C1338.4 292.308 1320.571 232.15 1287 185l-2.527-3.637c-7.403-10.551-15.41-20.34-24.145-29.812-1.952-2.139-3.836-4.338-5.703-6.551-8.891-9.811-19.117-17.996-29.625-26l-3.309-2.61c-59.653-45.772-140.863-62.474-214.613-53.873C945.289 70.67 889.625 95.56 843 137l-3.34 2.965C828.45 150.11 818.357 161.133 809 173l-2.355 2.977C790.473 196.699 776.937 218.592 765 242l-2.082 4.043c-22.975 45.18-36.776 93.192-49.193 142.105C689.233 484.48 689.233 484.48 659 520l-2.145 2.586c-12.368 14.426-31.057 24.533-50.042 26.164-26.689 1.233-48.82-8.185-70.813-22.75l-3.031-2c-11.03-7.284-22.015-14.634-32.906-22.125-13.83-9.507-27.837-18.75-41.81-28.044Q448.625 467.42 439 461l-10.159-6.772-6.882-4.59a3206 3206 0 0 0-14.717-9.775C390.914 429.093 377.228 418.34 371 399c-2.852-14.258-1.294-26.98 6-39.5 10.323-15.022 24.612-23.435 40-32.5l3.02-1.79c9.13-5.402 18.326-10.69 27.53-15.964C461.203 301.418 474.706 293.42 488 285l2.634-1.665C505.848 273.692 520.052 263.566 533 251l2.469-2.355c12.296-12.57 18.593-30.16 18.906-47.582-.181-5.606-.798-10.655-2.375-16.063l-.965-3.387C544.645 160.68 531.171 142.515 516 127l-2.758-2.945C484.762 94.333 445.722 75.984 406 67l-5.18-1.18C333.241 51.377 258.555 64.455 200 101c-15.66 10.349-29.442 22.06-43 35l-2.64 2.512C148.743 143.98 143.831 149.849 139 156l-3.035 3.813C127.899 170.118 120.747 180.79 114 192l-2.258 3.738C98.946 217.718 88.79 240.816 81 265l-1.002 3.103C49.312 364.617 56.645 475.706 103 566l2.457 4.79c10.491 19.59 23.46 37.478 38.422 53.866 1.936 2.14 3.813 4.333 5.684 6.532 3.582 3.972 7.364 7.347 11.437 10.812l2.133 2.016C170.793 651.234 179.29 657.12 188 663l4.512 3.047c67.675 44.238 149.886 49.124 227.3 33.703C464.628 690.185 507.058 674.415 548 654l2.924-1.456C572.88 641.534 593.707 628.816 614 615a3809 3809 0 0 1 6-3.937c6.533-4.35 12.845-9.001 19.191-13.618 4.886-3.5 9.832-6.89 14.809-10.257 5.634-3.831 11.074-7.716 16.32-12.055 5.129-4.082 10.513-7.824 15.836-11.645 7.999-5.76 15.917-11.63 23.844-17.488 21.78-16.095 43.692-31.984 66.04-47.285q3.967-2.72 7.92-5.461c24.003-16.622 48.948-31.666 74.063-46.524 7.14-4.226 14.25-8.503 21.352-12.792 6.946-4.194 13.932-8.25 21.063-12.125C916.54 412.977 935.074 402.24 948 389c-4.582-18.326-38.927-32.935-54-42l-6.035-3.61C862.387 328.1 837.583 311.835 813 295l-4.555-3.113-3.695-2.574-3.078-2.137C792.897 280.03 789.219 271.094 788 260c1.032-11.605 6.204-19.524 15-27 9.622-5.212 19.527-5.524 29.938-2.625 5.86 3.039 11.39 6.44 16.945 10.004 3.68 2.343 7.406 4.557 11.18 6.746 7.7 4.586 14.987 9.707 22.313 14.86 5.76 4.046 11.566 7.975 17.499 11.765 7.13 4.558 14.045 9.368 20.938 14.277 6.674 4.738 13.433 9.35 20.187 13.973a2164 2164 0 0 1 28.71 19.965q4.283 3.03 8.58 6.039c40.04 28.072 40.04 28.072 44.148 48.871 1.767 16.103-1.767 30.361-11.625 43.313-12.08 12.079-26.356 21.051-41.25 29.269-5.543 3.09-11.023 6.278-16.5 9.48l-3.123 1.826-6.094 3.57a7686 7686 0 0 1-7.705 4.507A1137 1137 0 0 0 912 484l-4.805 2.965C890.295 497.395 873.51 507.96 857 519l-7.36 4.895c-19.726 13.121-39.313 26.4-58.64 40.105l-8.875 6.25c-10.482 7.402-20.817 14.993-31.145 22.608-8.178 6.029-16.384 12.01-24.667 17.892a671 671 0 0 0-15.125 11.125c-6.755 5.092-13.626 9.99-20.558 14.838-4.52 3.209-8.964 6.503-13.403 9.822-9.947 7.372-20.18 14.253-30.54 21.028l-2.715 1.781C630.856 677.945 617.666 686.294 604 694a5126 5126 0 0 0-5.707 3.313C544.383 728.388 485.227 750.685 424 762l-3.958.742c-24.645 4.508-48.62 6.21-73.66 6.04-5.643-.032-11.285 0-16.929.038-57.338.066-114.339-14.743-163.453-44.82l-2.684-1.621C149.743 713.969 136.981 704.545 125 694l-3.875-3.312C102.624 674.148 102.624 674.148 95 665l-4-4.25C36.984 600.825 11.526 520.598 2 442l-.566-4.33c-1.91-16.23-1.832-32.477-1.809-48.795l.003-4.598C-.331 362.607.128 341.375 4 320l.764-4.41C11.724 275.862 22.482 237.84 39 201l2.086-4.691C53.94 168.213 70.61 142.012 90 118l2.2-2.79C103.486 101.066 116.231 87.744 130 76l2.758-2.422C175.813 36.242 227.516 14.038 283 3l3.633-.768c11.48-2.262 22.601-2.715 34.281-2.736"/><path fill="#d26d4e" d="m444 696-5.062 1.75L434 700l1 4h-2l1.375 3.188C436 711 436 711 436 716h4v2h-4l1 3-1 3 4-1v3l3 1c1.063 3 1.063 3 1 6-2.937 1.125-2.937 1.125-6 1v-4h-2v2h-2v-2h-2v6c-2-1-2-1-4-5l-4-1-1 2c-4-1-4-1-6-2l-1 3-4-2h4l-1-4 5 1v-2h-2l-1-3 1-1c.249-4.032.128-7.951 0-12h-2v2c-3 .75-3 .75-6 1v-2l3-3h-1l-4.883-.035-6.242-.028-3.133-.025c-4.104-.013-8.108-.004-12.176.584-5.49.776-10.966.648-16.503.629l-3.518.012A353 353 0 0 1 357 709v-1a458 458 0 0 1 10.313-.812c23.207-1.787 46.636-5.25 69.113-11.399C440 695 440 695 444 696"/><path fill="#d16f50" d="M242 728c2.785 2.785 4 5.038 4 9l3.438-1.5L253 734l1 3h2v-5l5 2c-1.687 2.625-1.687 2.625-4 5h2l1 5h-3v4h3v2h-3l-1 2h-2l1 4-1 3c-18.12-.828-36.453-10.16-53-17l-5-2c4-1 4-1 9-1v2h3a300 300 0 0 0 4-7h2l1 3 3 1v2l3-1v4h-2l1 4c4.563 1.188 4.563 1.188 9 2v1l5 1c.446-2.985.766-5.99 1-9l3-4-2-1c-1-2-1-2 0-7 2.938-1.437 2.938-1.437 6-2"/><path fill="#d37052" d="m538 706 3 3 4-3 2 2-1.562 3.063c-.475.969-.95 1.938-1.438 2.937l3 1-1 2-3 1 1 2 4 1v-2h4v-2l4 2c-13.775 6.87-27.798 12.609-42.22 17.956a319 319 0 0 0-7.362 2.896C503 741 503 741 500 740v-3l3.188-.437c5.587-.825 7.919-3.67 11.812-7.563l4 1 3-3h3c.708-2.656 1.37-5.324 2-8l3-4h-2c.688-3.937.688-3.937 2-8 3-1 3-1 8-1"/><path fill="#d2775b" d="M776 218c0 5.087-3.141 9.286-5.5 13.688l-3.336 6.324-1.651 3.122C758.299 254.801 752.06 268.794 746 283l-1-2h-2v-2h2l-1-5h3v-2h2c-.125-2.937-.125-2.937-1-6l-4-1 2-1v-2h-2c-.3-2.703-.3-2.703-.312-6.25l-.051-3.516C744 249 744 249 747 245c3.188.625 3.188.625 6 2v2h5l-1-4h5q.125-4.5 0-9l3 1q.509-3.499 1-7h3v-5h2v-2h2v-3l-3-1c3-.687 3-.687 6-1"/><path fill="#d3785d" d="M599 268c-6.709 16.772-25.622 33.44-40 44l-3 1-1-5 2-2h4l-1.75-5-1.25-5c3.75-.375 3.75-.375 8 0l1-4c5 1 5 1 8 2l-1-4c4-4 4-4 8-5v-4h2l1-3h2l1-2h2l-1-4 1-3c5-1 5-1 9-1"/><path fill="#d4866e" d="M966 447h5c-1.335 4.005-2.974 4.405-6.625 6.441l-3.556 2.004-3.819 2.118q-3.862 2.172-7.723 4.347l-3.797 2.13c-25.82 14.545-25.82 14.545-36.718 22.25L906 488l-2-1 1-4 4-1v-1h5v-2h4q.577-3.991 1-8c3-2 3-2 8-2l2-1h4v-2h2l1-2 5 1v-2l3-1 1-3 3-.437 3-.563 1-4 3-1 4-4c5-1 5-1 7 0z"/><path fill="#d26a4b" d="M969 698c6.605.329 13.054 2.026 19.5 3.438 8.589 1.847 17.093 3.313 25.844 4.203L1017 706v1c-3.48.297-6.96.45-10.45.621C1003 708 1003 708 998 710v-3c-2.674.272-5.34.615-8 1l-5-1c-3.125 2.313-3.125 2.313-6 5l-3 2-2-4a256 256 0 0 0-8 0v-3l5-3 2-2-3-1z"/><path fill="#d28369" d="M1370 205c6.78 10.171 10.507 23.057 14.563 34.563l1.086 3.045c.845 2.444 1.606 4.916 2.351 7.392l-1 2-3-3h-3l-3-1 1 4c-3.375.875-3.375.875-7 1l-1-2h3l-1-3.375-1-3.625 3-2c0-6 0-6-1-10l2-2c0-5.217-.903-7.341-3-12-3-8.333-3-8.333-3-13"/><path fill="#d26c4d" d="m925 731 4 2-1 2h2v3h2v2l3.563-.812L939 739c.125 3.438.125 3.438-1 7h-3l1 4 4 1 4 3c-7.933-1.557-15.426-4.027-23.062-6.625l-3.78-1.273q-4.58-1.547-9.158-3.102c4-1 4-1 7.25.25l2.75.75v-5l2 1 1 3 3-5h2q-.378-3.518-1-7"/><path fill="#d47d62" d="M88 536c2.71 2.71 3.638 5.59 5.125 9.125 3.177 7.426 6.718 14.59 10.469 21.742L105 570l-1 2-3-3v-2l-3-1-1-5-2-1v-6l-3 1-1.5 3.563L89 562h-3l-3-3-3 1a400 400 0 0 1 0-10h-2v-4l3 1 5-1 2 5h2c-.483-7.483-.483-7.483-3-10z"/><path fill="#d0785d" d="M567 468c6.35 1.108 12.275 5.162 17.93 8.125 7.294 3.36 14.046 4.604 22.07 3.875 2.813-2.125 2.813-2.125 5-5a171 171 0 0 1 5-6l1 2-2 5-3 1 1 3c-5.393 3.338-10.762 3.362-16.906 3.672C594 484 594 484 590 485.75l-3 1.25c-3.92-2.352-5.932-3.932-9-7v-4l-4 1v-4l-3.5.063L567 473z"/><path fill="#d9927c" d="M1069 58c2.163.228 4.33.425 6.5.563C1081 59 1081 59 1084 60c9.302.233 9.302.233 13-1v2q5.494 1.034 11 2l3 2a167 167 0 0 0 6 2c-4.435 1.478-7.807.181-12.375-.75-22.231-4.24-44.415-5.631-67.03-5.784l-4.618-.06-4.154-.021L1026 60l1-3c2.785-.464 2.785-.464 6.492-.582l4.078-.135 4.305-.096 4.188-.154c8.005-.224 15.114.295 22.937 1.967"/><path fill="#d3765b" d="M533 446c4.086 1.634 6.979 3.166 10.563 5.59l3.164 2.127 3.273 2.22q3.217 2.172 6.438 4.34l2.87 1.945c2.519 1.664 5.104 3.225 7.692 4.778l-3 2v-2l-5-1-3-2a176 176 0 0 0-6.125-2.812l-3.258-1.458L544 459l-1 3-4-1-5-1-4-2v-5l4-2z"/><path fill="#d69581" d="M1345 338h1a191 191 0 0 1 1 7.188c.536 4.33 1.143 8.529 2 12.812.072 3.268.084 6.536.063 9.805l-.024 5.898q-.028 4.607-.06 9.214c-.066 10.829-.091 21.539.998 32.322C1350 418 1350 418 1348 421c-.38 3.942-.507 7.867-.656 11.824L1347 436h-2c-1.285-7.065-.754-13.788-.062-20.875 1.818-21.208 1.242-42.071-.5-63.266-.324-4.328-.634-8.527-.438-12.859z"/><path fill="#d48268" d="M212 734h2l1 3 3 1v2l3-1v4h-2l1 4c4.563 1.188 4.563 1.188 9 2v1l5 1v-3h4l1 3c-4 3-4 3-7.953 2.5-6.102-1.813-11.916-4.076-17.797-6.5l-3.363-1.367q-3.086-1.255-6.167-2.52A1038 1038 0 0 0 196 740c4-1 4-1 9-1v2h3a300 300 0 0 0 4-7"/><path fill="#d37e64" d="m1324 630 2 2c-1.164 4.657-2.872 6.52-6 10.125l-3.012 3.484a937 937 0 0 1-9.976 11.157c-1.877 2.084-3.697 4.22-5.512 6.359L1299 666h-1v-6h4v-4h3q.528-5.498 1-11l3-5c3 1 3 1 5 3l2-1 1-3h4l-1.062-3-.938-3h5z"/><path fill="#dfa390" d="m304 58 2 1c2.584.082 5.17.096 7.754.082l4.975-.02 5.404-.035 11.191-.037q8.876-.037 17.752-.086c5.685-.03 11.371-.048 17.057-.064l5.416-.04c.818-.003.818-.003 4.955-.011l4.396-.023L388 59v2c4.09.629 8.184.966 12.305 1.34L404 63l2 3c-8.002-.837-15.92-2.038-23.867-3.281-11.738-1.644-23.226-1.911-35.07-1.907l-5.258-.001c-10.513.043-20.782.402-31.215 1.752C307 63 307 63 301 63z"/><path fill="#d48166" d="M1377 535h4c-1.163 5.817-3.42 10.863-5.812 16.25l-1.33 3.027q-1.3 2.955-2.61 5.905a991 991 0 0 0-3.51 8.052L1366 572h-1c-.687-3.5-.687-3.5-1-7h2v-3h-2v-2l-3-1 3-3v2h5v-2h3v-5l-2-1-2-4h2l1-5 1-3 4 1z"/><path fill="#d3826a" d="M950 71c3 .375 3 .375 6 1-3.722 2.481-7.37 3.531-11.625 4.938-8.36 2.883-16.47 6.123-24.562 9.687l-3.146 1.379c-4.748 2.117-9.248 4.325-13.78 6.894L899 97l-2-1v-3h5v-2l2-1v-2l5-1 1-2c5.38-4.035 8.516-2.695 15-2v-2h5v-2h5v-2l2-2h8v-2h5z"/><path fill="#da9b86" d="M544 530c3 .313 3 .313 6 1v2h5l2 3q3.495.543 7 1v2l3.125-.562c4.437-.501 6.175.183 9.875 2.562l1 2 3 1 1-2 1 3c5.534 1.384 11.075 1.45 16.75 1.688l3.559.181c2.894.123 5.794.137 8.691.131v-2c2.625-.414 2.625-.414 6-.625l3.375-.227L624 544c-6.36 6.36-20.321 4.985-28.742 5.012-17.725-.656-36.803-7.773-51.258-18.012z"/><path fill="#d27a5e" d="m391 752 4 3 3-1-.187 3.938L398 762h6v-4h4v-2h-4v-3c3-.062 3-.062 6 1v6c4 1.313 4 1.313 8 2v1a256 256 0 0 1-9 1.563l-5.062.816c-8.532 1.073-8.532 1.073-12.938.621 1-4 1-4 3-6l-6 1 2-4h2z"/><path fill="#dc9e8a" d="M1113 703c-3.972 1.503-7.585 2.273-11.812 3l-5.188 1-1 2q-5.5.505-11 1c-2 2-2 2-3 5h-3v-4c-3.494-.53-3.494-.53-8.371-.574l-5.373-.084-5.694-.03c-37.249-.436-37.249-.436-41.562-3.312l4.152.219c28.583 1.39 56.371 1.2 84.551-4.512C1110 702 1110 702 1113 703"/><path fill="#d4856c" d="m1199 726 1 4c3.063.875 3.063.875 6 1v-2l5 1c-10.756 8.067-25.191 13.903-38 18l-2-1 2-4c3.375-.625 3.375-.625 7-1 4-2 4-2 5-4l4 1v-2h4v-2h-2l1-4h2l1-2 3 1z"/><path fill="#d58369" d="M575 700h3v2l3-1 3 2v-3c3 .313 3 .313 6 1-3.514 2.982-6.985 5.18-11.105 7.234l-3.479 1.739-3.604 1.777-3.638 1.824C559.267 718 559.267 718 557 718v-3h5l2-5c3.348-4.464 4.649-5.662 10-7z"/><path fill="#d68a71" d="M732 596h3l1 2c3.563.125 3.563.125 7 0-3.605 3.605-6.906 6.07-11.125 8.875-8.1 5.474-15.7 11.416-23.305 17.547L705 627l-2-1c.625-3.5.625-3.5 2-7 4-1 4-1 6 0l-1-3c4.1-2.788 7.095-4.019 12-5v-2c3-2 3-2 7-2l-1-3h5l-1-3h3v-2l-4-1z"/><path fill="#d5866d" d="m176 655 3.914 2.625c20.345 13.558 20.345 13.558 30.961 19L215 679l-3 2v-2h-11v-2h-3l-1 3h-3c-.643-4.033-1-7.916-1-12h-3v-2l-5-1-3-2v-2l-4-1z"/><path fill="#d79581" d="M67 318c-.516 7.199-1.447 14.288-2.437 21.438-1.914 14.66-2.365 29.422-2.916 44.183l-.217 5.633c-.06 1.684-.12 3.368-.18 5.104L61 398h-1c-.061-5.804-.019-11.599.04-17.402.02-3.2-.006-6.399-.04-9.598h-1c-.101-2.978-.13-5.958-.125-8.937l-.008-5.028C59 353 59 353 60 352c.287-2.16.506-4.329.688-6.5l.324-3.594L61 339l-2-1 2-2q1.086-4.48 2-9l1-4-2-1v-2c4-2 4-2 5-2"/><path fill="#d47f65" d="M870 499v5l-3 1v2c3.5.125 3.5.125 7 0-5.026 4.095-10.31 7.7-15.687 11.313l-2.917 1.994c-2.424 1.628-4.906 3.168-7.396 4.693l-2-1v-3h2v-2h6v-2h3v-3h4a140 140 0 0 0-1-8l2-1-1-3c3.015-2.01 5.157-3 9-3"/><path fill="#d37e63" d="M530 725h2v2h2v-2l5 1c-2.404 2.404-4.424 3.073-7.602 4.277l-3.425 1.307-3.598 1.354-3.527 1.341q-3.395 1.29-6.794 2.564c-2.58.978-5.144 2.002-7.702 3.036C503 741 503 741 500 740v-3l3.188-.437c5.587-.825 7.919-3.67 11.812-7.563l4 1 3-3c2.323-.4 4.657-.74 7-1z"/><path fill="#d88f77" d="M276 754h3l2 2h3v2h-2l1 4-4-1v1c2.013.36 4.036.661 6.063.938 4.801.697 9.286 1.667 13.937 3.062l7 1v1c-9 .64-17.743-1.306-26.562-2.875l-4.733-.816c-6.977-1.22-13.846-2.53-20.705-4.309 6.066-3.033 8.495-3.026 15-1v2c3.5.563 3.5.563 7 0 .25-3.5.25-3.5 0-7"/><path fill="#d48a73" d="M146 65c-2 4-2 4-6 8h-4l-1 4a237 237 0 0 1-6 5q-2.506 2.995-5 6a259 259 0 0 1-5 4l-1 2-5 1v2l-4-1c6.81-6.903 13.583-13.742 21-20l3.27-2.863 3.542-3.075 3.333-2.902C143 65 143 65 146 65"/><path fill="#d5917b" d="M1166 747h4v2a163 163 0 0 1-10.187 3.688l-3.199 1.056C1124.706 764 1124.706 764 1113 764v-2c3-1 3-1 7.188-.937L1124 761v-2h4l1-4 1 2h2v-2h2v2l4-2h6v-3q5.006.438 10 1v-2l5-1v-1l3.5.063 3.5-.063z"/><path fill="#d7927d" d="M767 670c5.5.75 5.5.75 11 2v3h3l3 3 4 1v2l4-1v2l4 2 2 1v2h3v2h4l3 3 2 1v2h5v3c-4.325-1.081-7.479-3.021-11.25-5.34-3.45-2.083-7-3.972-10.547-5.887-17.917-9.92-17.917-9.92-26.203-15.773z"/><path fill="#db9e8a" d="m428 700-3 .375-3 .625v2c-4.577 1.831-7.32 2.323-12.125 2.563-6.586.34-6.586.34-9.875 1.437-10.523 1.68-20.989 2.187-31.625 2.188l-3.397.002c-2.66-.019-5.32-.098-7.978-.19v-1c3.438-.315 6.869-.575 10.313-.812 18.067-1.374 36.02-4.003 53.746-7.77C424 699 424 699 428 700"/><path fill="#d89985" d="M812.438 625.504C816 628 816 628 818 630l-3 1v-2h-4v-2h-4l-3-4-5-2v-2h-5v-2c-3.064-.009-6.13.122-9.187.312l-5.168.301C775 618 775 618 770 619v2c-1.977.73-3.98 1.394-6 2l-2 1c2.786-5.572 6.56-7.061 12.25-9.25 15.439-3.088 25.673 2.459 38.188 10.754"/><path fill="#d4856d" d="M699 630c-4.19 3.401-8.49 6.643-12.812 9.875l-4.083 3.055L678 646l-4.387 3.445L670 652l-2-1 1-4 3-1v-2h2v-5c3.25-1.187 3.25-1.187 7-2l4-2h4l1-4c2.957-1.478 5.742-1.06 9-1"/><path fill="#d38368" d="M1400 463h1c-.327 10.961-3.336 21.412-6 32-2-4-2-4-2-9h2c-.25-3.5-.25-3.5-1-7h-2c-.25-3.5-.25-3.5 0-7h2v-2h-2v-6h2v2c5-2 5-2 6-3"/><path fill="#d58971" d="m742 282 3 1c-1.326 6.63-3.656 12.771-5.937 19.125l-1.381 3.902-1.334 3.73-1.219 3.411C734 316 734 316 732 319c-.08-3.145-.139-6.291-.187-9.437l-.106-5.31L732 300l3-1a150 150 0 0 0 1-6l2-1 1-3h2l.438-3.562c.185-1.135.37-2.27.562-3.438"/><path fill="#d6886f" d="M76 501c2.03 3.044 2.985 5.597 4.129 9.059l1.197 3.607 1.237 3.771 1.248 3.76C86.845 530.38 86.845 530.38 88 535h-2l-2-2h-2l1-3 2 1-2-4-5-1v-3h-2v-4l-2-1v-5h2v-2h2c-.64-2.009-1.31-4.008-2-6z"/><path fill="#d58871" d="m834 528 6 1c-3.56 3.56-6.753 5.96-10.937 8.688-6.355 4.153-12.535 8.488-18.649 12.988L808 552l-1-3h2v-2h2v-2h4v-2h4l1-5 2-2 3 1 .438-2.875L826 531l4-1 1 1 4-1z"/><path fill="#d68f79" d="M949 308c4.822 1.929 7.948 4.018 12.063 7.125 4.72 3.52 9.454 6.951 14.375 10.188 4.654 3.069 9.245 6.147 13.562 9.687-2 1-2 1-6 0v-2h-2l-1-2-5-2v-2l-4.5-.437L966 326v-3l-4-1-1-4h-2v-2l-4-1-1-2-3-1v-2l-3 1z"/><path fill="#dca290" d="M276 702a221 221 0 0 1 18.3 2.409c15.865 2.672 31.714 3.404 47.778 3.995l5.465.201 4.938.161L356 709v1c-4.007.106-7.993.14-12 .125l-3.735-.01c-10.008-.054-20.011-.23-30.015-.49l-4.29-.093c-1.301-.04-2.603-.078-3.944-.118l-3.523-.095L296 709v-2q-4.992-.569-10-1l-1-1-4-.437-4-.563z"/><path fill="#d38a72" d="M479 485c5 1 5 1 9 3v3q2.975 1.075 6 2l1 2h6c1.125 3 1.125 3 2 6h4v2h2a101 101 0 0 1 3 6c-7.773-3.887-14.805-9.145-22-14l-3.371-2.242c-6.51-4.404-6.51-4.404-7.629-7.758"/><path fill="#d47a5e" d="M1382 235c2.016 3.025 3.032 5.63 4.188 9.063l1.105 3.222C1388 250 1388 250 1387 252l-3-3h-3l-3-1 1 4c-3.375.875-3.375.875-7 1l-1-2h3l-1.187-3.25L1372 244c2.688-2.312 2.688-2.312 6-4l3-2 1 1z"/><path fill="#d68c75" d="M849 648c6.051 1.655 11.312 4.774 16.75 7.813 7.01 3.895 14.052 7.647 21.25 11.187-4 2-4 2-8.312.813L875 666l1-3h-4v-2h-4v-2l-4 3h-4c-1.187-3.375-1.187-3.375-2-7l-1-2h-4v-2h-3z"/><path fill="#d38970" d="M98 667c3 .875 3 .875 6 2v2l2.813.438C110 672 110 672 113 675l-2 1v3h2v2l5 1v3l4 1v3l3 1v3c-4.423-2.211-7.209-5.117-10.629-8.633-2.086-2.082-4.314-4.02-6.558-5.93-3.89-3.507-6.81-7.159-9.813-11.437"/><path fill="#d48971" d="m802 551 5 1c-6.472 5.261-13.25 10.105-20 15l-2.91 2.191c-2.403 1.746-2.403 1.746-6.09 3.809l-2-4c3-2 3-2 7-2v-2h2l1-3 3 1 1-5c2.323-.4 4.657-.74 7-1l-1-3h3z"/><path fill="#d58d76" d="M1232 48c13.396 5.359 24.74 15.18 36 24-4 1-4 1-9 0l-2-2-3-2-1-3-2-1-1-3a715 715 0 0 0-8-4v-2l-5-1-1-3h-4z"/><path fill="#d2846c" d="M1339 151c5.712 1.904 8.07 9.009 11 14l2.371 3.836 2.254 3.726 2.102 3.442L1358 179l-2 4-3-4-3 1v-2h2l-4-4q-.061-3.5 0-7c-3-5-3-5-5-6-2-3-2-3-2-6h-2z"/><path fill="#d78e77" d="m484 739 3 1c2.226.225 4.456.408 6.688.563l3.574.253L500 741c-5.237 3.491-11.462 4.828-17.437 6.688l-4.05 1.298-3.884 1.213-3.56 1.12C468 752 468 752 464 751h3v-2h7v-2l2-1-1-3c3.8-.877 6.268-1.244 10 0z"/><path fill="#d99782" d="M969 698c6.605.329 13.054 2.026 19.5 3.438 8.589 1.847 17.093 3.313 25.844 4.203L1017 706v1c-3.48.297-6.96.45-10.45.621C1003 708 1003 708 998 710v-3c-2.687-.625-2.687-.625-6-1l-5-1v-2a195 195 0 0 0-7 0l-4-1v-2l-2.937.563L970 701z"/><path fill="#d38b73" d="m192 100 5 1c-1.35 4.048-3.331 4.799-6.875 7.125-7.952 5.362-15.34 11.09-22.125 17.875l-2-1v-5l5-2 2.5-2.625C176 113 176 113 181 113v-5l5 1 1-4h3v-2l2-1z"/><path fill="#d58067" d="m714 354 2 1v4h3l2-3c-.663 5.254-1.717 10.301-3 15.438l-1.062 4.308L716 379h-1c-.13-4.277-.128-8.28.625-12.5L716 364l-2-1-1 2h-3c-2-4-2-4-2-7l5-3z"/><path fill="#d58d78" d="m1017 406 2 1c-2.534 10.554-11.608 17.735-19.46 24.555L997 433l-2-4h2v-3l2.938-.437L1003 425l1-4h3l1-4h3l1-4h3v-5h2z"/><path fill="#d58d77" d="M68 465h1c.864 3.828 1.67 7.652 2.438 11.5q.651 3.235 1.308 6.469l.636 3.136c.531 2.49 1.147 4.96 1.778 7.426C76 497 76 497 76 501h-3c-.625-3.437-.625-3.437-1-7l-1-1 .063-4.062L71 485h-2v-5h-3c-.11-2.773-.11-2.773.25-6.375l.328-3.586C67 467 67 467 68 465"/><path fill="#d3856c" d="m532 327 1 3a133 133 0 0 1-9.75 6.125c-.933.55-1.867 1.1-2.828 1.668-6.893 4.03-6.893 4.03-10.422 5.207-.437-3.875-.437-3.875 0-8 4-1 4-1 8 0v-2h5v-2c6.353-4 6.353-4 9-4"/><path fill="#d18168" d="M525 512h3l-1 4h3v3h3l1 2 4.063.313L542 522v5h3l1 3c-6.024-1.205-10.211-4.054-15.25-7.375-.923-.59-1.846-1.18-2.797-1.79-6.827-4.457-6.827-4.457-7.953-7.835l5 1z"/><path fill="#d5866e" d="m894 490 5 1c-4.605 3.893-9.619 7.128-14.687 10.375l-2.627 1.73c-2.173 1.39-4.424 2.655-6.686 3.895l-2-2 1-5h2l1-5 2 3c4.625-.187 4.625-.187 9-1v-2l3-1v-2h3z"/><path fill="#db9d8a" d="M618 190h1c.821 18.812-.827 36.098-7 54h-1a162 162 0 0 1 0-11h2l-.5-3.5-.5-3.5h2q.528-4.497 1-9l2-4c.275-3.933.465-7.813.563-11.75.105-3.755.248-7.498.437-11.25"/><path fill="#d69784" d="M267 66c3.5-.293 3.5-.293 8-.187l4.5.082L283 66c-4.465 2.232-8.743 3.378-13.562 4.688-9.064 2.54-17.832 5.53-26.63 8.894C239 81 239 81 235 82l1-3h4v-2h5v-2l4.5-.437L254 74v-3c3-.625 3-.625 6-1v-1l3.5.125L267 69z"/><path fill="#d6947f" d="M879 260c5.283 2.641 10.126 5.899 15.063 9.125l2.99 1.938c6.809 4.44 13.508 8.97 19.947 13.937-2 1-2 1-6 .375L907 284l-2-5-5-2c-3.312-2-3.312-2-6-4v-2h-3l-1-2-5-2c-3.312-1.937-3.312-1.937-6-4z"/><path fill="#d99a87" d="M1012 355c8.633 8.633 11.654 19.166 12.188 31.25-.183 3.649-.515 7.159-1.188 10.75h-1c-.295-4.848-.451-9.697-.621-14.55C1021 378 1021 378 1019 375v-4l-5-1c-.187-4.187-.187-4.187 0-9-1-3.562-1-3.562-2-6"/><path fill="#e2ad9c" d="M61 399h1a838 838 0 0 1 .813 13.625c.725 12.777 2.068 25.357 3.954 38.014 1.328 9.076 1.328 9.076.233 12.361l-.312-3.437L66 456l-3-1c-.524-3.1-.524-3.1-.73-7.27l-.245-4.608-.212-4.935-.242-4.954C60.456 409.072 60.456 409.072 61 399"/><path fill="#d48871" d="m97 220 1 2c-1.168 2.91-2.436 5.779-3.75 8.625-2.634 5.733-5.104 11.44-7.25 17.375-2-3-2-3-2-9l2-1-.062-4.937L87 228l3-2v2h3v-4h2v-3zm494-99c3.746 3.746 5.965 7.792 8.625 12.375l2.977 5.086C605 143 605 143 606 148l-4-2-1.312-4.75L599 137c-3.75.75-3.75.75-7 2 1-5 1-5 2-7h-2v-6z"/><path fill="#d48a74" d="M708 399h2c-.354 7.227-2.527 14.082-4.5 21l-.973 3.504A385 385 0 0 1 702 432h-1l.188-3.375L701 425l-4-2 2.145-1.684c3.641-2.954 3.79-4.823 4.543-9.378 1.143-6.684 1.143-6.684 3.312-9.938z"/><path fill="#d8937c" d="m918 739 2 1v5h5l2-2 2 2h-2v2l5-1 1-3 .125 2.938L934 749c2.813.625 2.813.625 6 1l4 4c-7.933-1.557-15.426-4.027-23.062-6.625l-3.78-1.273q-4.58-1.547-9.158-3.102c4-1 4-1 7.25.25l2.75.75z"/><path fill="#d4846c" d="M815 698c4.438-.25 4.438-.25 9 0v2l4-1v3l3 1 3 1v3l5-1v2l2 2c-5.884 1.471-9.62-1.557-14.687-4.312l-2.956-1.553c-7.215-3.852-7.215-3.852-8.357-6.135"/><path fill="#d48a72" d="M820 153h3l1 3c-2.5 3.04-2.5 3.04-6 6.625-3.956 4.127-7.796 8.193-11.25 12.75L804 179h-1c0-5 0-5 2-8h2l1-4h2v-2h3l1-4 3-4h2z"/><path fill="#d38a73" d="M654 657c3.563-.187 3.563-.187 7 0-5.245 4.256-10.713 8.136-16.25 12l-3.086 2.215c-2.473 1.718-5.06 3.272-7.664 4.785l-1-4h4l-1-4c3.438-.625 3.438-.625 7-1v-2h2v-2h4v-2l4-1z"/><path fill="#d37a5f" d="m802 622 5 2v3h4v2l3.875.25c6.403.937 9.767 3.203 15.125 6.75l-4 2-1-3h-3v-2c-4.437-.75-4.437-.75-9-1l-1 2-5-3v-2c-4-2-4-2-7-3v-2h2z"/><path fill="#d68d76" d="m438 459 3.813.5C446 460 446 460 449 459l-.75 2.875L448 465c3.375.75 3.375.75 7 1l1 2 4 1c2.44 2.648 3.858 4.573 5 8-4.694-1.878-8.207-3.993-12.375-6.812l-3.836-2.583c-3.629-2.495-7.25-4.984-10.789-7.605z"/><path fill="#d4826a" d="M1290 188c3 1 3 1 8 4v-2l4 2-1 4-2-1v2l4 2c-.25 4.625-.25 4.625-1 9-2.725-3.633-5.218-7.316-7.687-11.125l-2.45-3.758C1290 190 1290 190 1290 188"/><path fill="#d28168" d="m790 103 1 3 2 1h-2l-2 4-5 3-1 2-3 .375-3 .625-1 4-5 1a3069 3069 0 0 1 6-7l3.5-4.187c3.025-3.295 5.504-5.815 9.5-7.813"/><path fill="#d3856d" d="M909 355c4.462.892 7.94 2.01 12 4v2c2.333.043 4.667.04 7 0l2 1v2h2c.938 3.625.938 3.625 1 7-4.727-1.89-7.926-3.948-12-6.937-3.947-2.889-7.798-5.542-12-8.063z"/><path fill="#d8937d" d="M776 218c0 5.29-3.368 9.785-5.812 14.375l-1.659 3.156c-2.41 4.57-4.87 9.036-7.529 13.469l-1-3-3-1h5q.125-4.5 0-9l3 1q.509-3.499 1-7h3v-5h2v-2h2v-3l-3-1c3-.687 3-.687 6-1"/><path fill="#d2846b" d="M145 143h3c-1.834 4.586-3.04 6.433-6.312 9.875-2.91 3.107-5.233 5.936-7.625 9.5L132 165l-2-4h3v-3.25c0-3.75 0-3.75 3-7.75l5-1v-2l4-2z"/><path fill="#d78469" d="M364 756h4c-1 2-1 2-4 6l1 4c4.437.273 8.635.324 13.063.188A938 938 0 0 1 391 766v1c-5.608 1.345-11.264 1.133-17 1.125l-5.812.008c-8.052-.206-8.052-.206-11.188-1.133.625-2.875.625-2.875 2-6v-3l5 2zm0 6 2 1Z"/><path fill="#d58e77" d="M455 371h4c-2.437 4.875-5.392 6.803-9.687 10-2.313 2-2.313 2-4.313 6 1.844 2.105 1.844 2.105 4.5 4.188L454 395l-2 1-3-1v-2h-5c-1.875-3.75-1.157-7.912-1-12h2v-2h3v-2h3l-1-3 5 1z"/><path fill="#d48d76" d="m832 65 4 1-2 3h-4l-2 4-3.375 2.375C821 78 821 78 818.875 81.313L817 84h-5l-4 2c3.583-4.601 7.374-8.085 12-11.625 1.196-.92 2.393-1.84 3.625-2.79L827 69l2.688-2.398z"/><path fill="#d38267" d="M1031 765v2c2.844.16 2.844.16 6.5.063 2.166-.054 4.333-.084 6.5-.063v1c-5.369.266-10.75.185-16.125.188l-4.617.037-4.453.005-4.095.013c-3.605-.236-6.385-.856-9.71-2.243v-1c3.588-.27 7.156-.472 10.75-.625l3.078-.156c4.307-.193 7.967-.27 12.172.781"/><path fill="#d48369" d="m1381 513 2 3 5-1c-.813 6.968-3.45 13.502-6 20h-1c-.033-3.39.07-6.768.16-10.156L1381 522h-2a174 174 0 0 1 2-9"/><path fill="#d6917c" d="M918 286c10.825 6.119 20.847 13.83 31 21l-4 1a195 195 0 0 1-7-6 132 132 0 0 0-6-3l-2-2-5 1-1-2h3v-2l-2.937-.375L921 293l-1-4h-3z"/><path fill="#d79883" d="M364 59c4-.054 8-.093 12-.125l3.469-.05c2.844-.018 5.689.07 8.531.175v2c4.09.629 8.184.966 12.305 1.34L404 63l2 3c-6.325-.662-12.592-1.52-18.875-2.5-5.584-.857-11.115-1.653-16.75-2.062C366 61 366 61 364 59"/><path fill="#d68c75" d="M647 529c-1 4-1 4-3.73 6.035l-3.457 2.028-3.418 2.035c-6.585 3.69-6.585 3.69-9.395 4.902l-3-1 1-2h5v-2h4l-1-4h6l-1-4c5.038-3.32 5.038-3.32 9-2"/><path fill="#d69581" d="M77 265h3c-.59 3.59-.59 3.59-2 9q-.85 3.501-1.691 7.004l-1.871 7.558-.96 3.924-.92 3.705-.834 3.382L71 302h-1c-.687-3.5-.687-3.5-1-7h2c.703-4.842 1.054-9.685 1.438-14.562.185-1.465.37-2.93.562-4.438h2v-6z"/><path fill="#d68e77" d="m517 265 2 1-3 3-2 4h-2l-2 4c-3 2-3 2-7.625 2.438L498 280l-1 3-4-1 2.965-1.941c12.013-7.927 12.013-7.927 17.348-12.247z"/><path fill="#d48770" d="M533 446c5.069 2.027 8.941 4.486 13.438 7.563l4.433 3.003L554 459c-2 1-2 1-7 0v-2l-5 1-1-3-2 2c-4-3-4-3-5-8z"/><path fill="#d3846c" d="m811 291 2.813 1.063C817 293 817 293 820 292v2h2l-1 4c3.375 1.438 3.375 1.438 7 2l1-3v3l2 1v5c-4.736-1.894-8.12-3.995-12.25-6.937l-3.766-2.653C812 294 812 294 811 291"/><path fill="#d48a73" d="M770 573h2v2l2 1c-2.556 1.942-5.125 3.869-7.754 5.71a202 202 0 0 0-6.398 4.704c-2.55 1.95-5.192 3.781-7.848 5.586l-1-3 1-2h3v-2l2-2h4l1-4h4l2-4h2z"/><path fill="#d48c74" d="M126 165h5c-1.367 3.012-1.367 3.012-4 7l-2.508 3.895-2.617 3.917-2.633 3.958C117 187 117 187 115 189v-5h2l-1-5h3v-3h2c1-4 1-4 0-6h3z"/><path fill="#d68e76" d="M396 431a140 140 0 0 1 8 2v2q2.999.51 6 1l1 2h6c1.188 4.125 1.188 4.125 1 8-5.028-2.011-8.806-4.43-13.25-7.5l-4.328-2.969C397 433 397 433 396 431"/><path fill="#d89d89" d="m1343 435 2 2c-.26 2.343-.618 4.674-1 7l-.312 5.938c-1.451 19.825-1.451 19.825-7.688 26.062.795-7.283 2.14-14.432 3.5-21.625l1.344-7.164c.198-1.049.395-2.098.6-3.178A477 477 0 0 0 1343 435"/><path fill="#d68c76" d="M454 396c4.56 2.28 8.466 5.052 12.625 8l4.602 3.25C475 410 475 410 477 412c-4.079 1.36-6.845 1.005-11 0-.875-3.062-.875-3.062-1-6h-2v-2h-2l-1-2-4-1v-2h-2z"/><path fill="#d4876f" d="m568 91 2 1v2h2c1.966 2.231 3.85 4.536 5.688 6.875l3.074 3.867L583 108l-1 2c-4.054-.737-5.882-1.882-8.812-4.812C571 102 571 102 570 97a251 251 0 0 0-2-6"/><path fill="#d59580" d="M438 755c3.063-.195 3.063-.195 7-.125l3.938.055L452 755c-5.102 2.55-10.33 3.491-15.875 4.625l-3.262.695c-5.102 1.057-9.628 1.68-14.863 1.68v-2l11-1v-2h9z"/><path fill="#d68b74" d="m662 508 3 3c-2.376 4.753-5.457 8.044-9 12l-3.312 4.063L650 530l-2-1 3-5-2-1 2-1 2 1v-2h3l1-5 1-2h2l1-5z"/><path fill="#d7907a" d="M1290 92c4.318 2.16 6.794 4.527 10.188 7.938l3.23 3.214C1306 106 1306 106 1307 109l-5 1-1-3h-3v-6c-3.062-.687-3.062-.687-6-1l1-3-2-1v-2z"/><path fill="#d79079" d="M532 725v2h2v-2l5 1c-3.31 3.31-7.634 4.452-11.937 6.188l-5.465 2.23C517 736 517 736 514 735l1-2h5l1-3h3l1-3c5-2 5-2 7-2"/><path fill="#d37659" d="M742 586h4l2 4 3 3c-3.812 2.688-3.812 2.688-8 5v-4h-5v-6h4z"/><path fill="#d99d8b" d="M950 71c3 .375 3 .375 6 1-3.931 2.62-7.961 3.793-12.437 5.313-5.989 2.056-11.882 4.162-17.688 6.687L921 86l-2-1 1-2h5v-2h5v-2h5v-2l2-2h8v-2h5z"/><path fill="#d17558" d="M518 439c6.41 0 10.215 1.813 15 6v3c-5 1-5 1-9 0v-4h-4v-2h-2z"/><path fill="#d27a60" d="m1011 394 4 4 2 1 1-2 3-3c.898 4.08 1.17 6.501-.187 10.5L1019 407c-4-1-4-1-6.25-4.25C1011 399 1011 399 1011 394"/><path fill="#d58770" d="M566 299c3.563-.312 3.563-.312 7 0-3.284 3.394-6.708 6.62-10.187 9.813l-2.606 2.394C558 313 558 313 556 313l-1-5c2-2 2-2 6.063-2.812L565 304z"/><path fill="#d59079" d="m491 283 2 1c-2.852 4.026-4.119 5.78-9 7l-1.562 2.438c-3.794 3.987-8.15 3.87-13.438 4.562 3.759-3.759 7.012-5.965 11.563-8.625 7.35-4.318 7.35-4.318 10.437-6.375"/><path fill="#d79781" d="M77 640h2v3h3a352 352 0 0 1 3 7 800 800 0 0 0 6.688 6.625C94 659 94 659 95 661h2c.625 3 .625 3 1 6-6.045-4.495-10.37-10.137-15-16l-2.168-2.645C79.158 646.287 77.569 644.15 76 642z"/><path fill="#dca18d" d="m617 469 1 2-2 5-3 1 1 3c-4.785 2.35-9.442 2.238-14.687 2.188l-4.512-.02C591 482 591 482 588 481v-2h-5l-1-3 4.688 1.438c6.998 2.058 13.016 3.11 20.312 2.562 2.813-2.125 2.813-2.125 5-5a171 171 0 0 1 5-6"/><path fill="#d17456" d="M518 500h4v4h2c-.25 3.5-.25 3.5-1 7h-2v4c-5-2-5-2-7-6l5-2-1-5z"/><path fill="#d48a73" d="M1341 609h2c-2.113 5.283-4.768 9.183-8.062 13.813l-3.286 4.644L1329 631h-1c0-6 0-6 2-8h3l-1-4h3l-1-5 5-1 1-3z"/><path fill="#d7937e" d="M429 72c4.5.313 4.5.313 9 1v2l4.438-.125L447 75l1 4 5.625-.062L459 79l-1 5c-3.902-.93-3.902-.93-9-3l-5.254-2.008-5.308-2.117-5.38-2.133L429 73z"/><path fill="#dba18d" d="m8 478 1 3h2c.82 2.971 1.504 5.98 2.125 9l1.07 5.063C15 500 15 500 14.992 504.625L15 508h2q.124 4.5 0 9c-1.902-3.804-2.796-6.908-3.727-11.031l-.937-4.145-.961-4.324-.984-4.324C8 482.518 8 482.518 8 478"/><path fill="#d78d76" d="m761 624 3 4-2 5-3 1v2l-4 1c-.574 3.16-.574 3.16-.687 7.063A303 303 0 0 1 754 651h-1c-.762-10.017.583-16.51 6-25z"/><path fill="#d7937e" d="M989 336c3.969 1.984 7.326 4.242 10.938 6.813l3.652 2.582c3.098 2.367 5.855 4.66 8.41 7.605l-1 2-3-2h-5l-1-5-4-3v-2h-5c-3-4-3-4-4-7"/><path fill="#d37b61" d="M609 233h2c1.542 7.71.577 13.996-3 21h-1a127 127 0 0 1-1.187-6.5l-.606-3.656L605 241h2l1-5z"/><path fill="#d48c75" d="M538 153c3 1 3 1 6 4l1 5h2v3h5c1 3 1 3-.312 6.813L550 175c-3.48-3.48-5.121-8.221-7.246-12.617C541 159 541 159 538 155z"/><path fill="#d5856d" d="M215 680c4.586 1.453 8.963 3.21 13.375 5.125l3.773 1.633L235 688l-3 1v3l-4 1c-4-5-4-5-4-8l-3.375.188L217 685z"/><path fill="#d37e64" d="M122 601c5.278 2.64 7.623 6.233 11 11l-1 2h-3l-1-3-4 2h-2c-.75-3.5-.75-3.5-1-7h2z"/><path fill="#d68e77" d="M635 432c1 4 1 4 .438 7.188L635 442l2 1c-2.406 3.712-4.87 6.87-8 10l-2 4h-2c1.421-5.486 3.915-10.671 6.125-15.875l2.195-5.18z"/><path fill="#d99e8b" d="M1332 281h3q.063 4.5 0 9h2v8h2c1.03 5.669 1.18 11.25 1 17h-1a150 150 0 0 1-1.629-6.422l-.947-4.047-.986-4.281-.999-4.234C1332 285.51 1332 285.51 1332 281"/><path fill="#d6907a" d="m628 674 4 1c-1.668 5.005-6.656 6.786-11 9.375l-2.852 1.77c-2.32 1.394-4.728 2.64-7.148 3.855l-1-3h3v-2h3l1-4c4-2 4-2 7-2v-2h4z"/><path fill="#d68e79" d="m824 467 2 1-1 4-3-1v2h-4v3c-5 3-5 3-10 5l-4-1 3.613-2.336 4.7-3.039 4.675-3.023A661 661 0 0 0 824 467"/><path fill="#d68871" d="m785 196 5 1c-1.632 4.08-3.258 7.175-5.625 10.813l-1.914 2.957L781 213c-1.92-3.842-.64-7.912 0-12 1.75-3.187 1.75-3.187 4-5"/><path fill="#d6937f" d="M889 99h5a131 131 0 0 1-9.312 6.375 182 182 0 0 0-9.75 6.563C872 114 872 114 870 114l-1-3h4v-2h4v-4h4v-3c2-1 2-1 8-1z"/><path fill="#d89782" d="m376 409 3 1v3l4 2 4 4 4 1v6l2 3c-7.272-3.636-12.973-10.996-17-18z"/><path fill="#d68c74" d="M865 724c4.438-.25 4.438-.25 9 0l1 3 3.938-1.312L883 725c1.5 3.875 1.5 3.875 2 8-6.968-2.17-13.434-4.842-20-8z"/><path fill="#d68f78" d="M1240 709h6c-3.864 3.21-7.9 5.974-12.125 8.688l-3.695 2.386C1227 722 1227 722 1224 723v-4h5l1-4h4v-2c3-2 3-2 6-2z"/><path fill="#d79580" d="m113 190 1 2c-1.332 2.628-2.767 5.204-4.25 7.75-4.58 7.907-4.58 7.907-6.484 11.766L102 214h-1c-.187-3.5-.187-3.5 0-7h2v-3h2v-5h2l-1-4 5-1v-3z"/></svg>