<svg xmlns="http://www.w3.org/2000/svg" width="1408" height="768"><path fill="#d56d48" d="M356 0h6c3.188 3.25 3.188 3.25 4.95 5.453 2.393 2.974 4.954 5.748 7.55 8.547 4.24 4.606 8.378 9.289 12.5 14l4 4v2h2c3.345 3.63 6.493 7.394 9.66 11.18 4.057 4.832 8.062 9.542 12.527 14.008C418 62 418 62 418 64h2c-1.246 6.231-3.438 7.79-8 12.125-4.416 4.211-8.531 8.437-12.336 13.2-4.714 5.868-9.907 11.109-15.289 16.362-6.042 5.926-11.84 11.902-17.375 18.313a325 325 0 0 1-5.375 5.375c-4.516 4.407-4.516 4.407-5.625 6.625h-2l-2 4a207 207 0 0 1-6.187 6.25c-4.86 4.73-9.365 9.63-13.813 14.75a1243 1243 0 0 1-7.937 8.5l-4.028 4.281a435 435 0 0 1-8.101 8.25c-3.826 3.86-7.374 7.865-10.934 11.969q-3.98 4.3-8 8.563l-4.062 4.316a412 412 0 0 1-7.875 8.023C278 218 278 218 277 220h-2l-2 4a120 120 0 0 1-4.687 4.75c-3.078 3.012-5.973 6.004-8.813 9.25-3.648 4.17-7.498 8.032-11.46 11.898C246 252 246 252 245 254h-2l-2 4a242 242 0 0 1-6.687 6.75A272 272 0 0 0 220 280q-2.984 3.015-6 6a231 231 0 0 0-13 14c-5.753 6.584-11.758 12.83-18.008 18.945-3.486 3.56-6.721 7.297-9.992 11.055-6.546 7.114-13.122 14.205-20 21-3.864 3.864-7.424 7.87-11 12a1257 1257 0 0 1-5.5 6.063l-2.828 3.101c-2.214 2.35-4.554 4.58-6.922 6.774L124 382c1.212 6.058 3.24 7.795 7.5 12.188l3.855 4.027L139 402c4.685 5.05 9.185 10.193 13.5 15.563 2.842 3.517 5.76 6.782 9 9.937 4.036 3.931 7.524 8.142 11.043 12.535 3.716 4.484 7.7 8.707 11.672 12.965 3.341 3.6 6.564 7.293 9.785 11 2.259 2.518 4.526 5.029 6.793 7.54a639 639 0 0 1 6.02 6.835A164 164 0 0 0 214 486v2h2c1.351 1.512 2.63 3.088 3.875 4.688 5.391 6.743 11.24 13 17.125 19.312 5.034 5.487 9.928 11.076 14.75 16.75 5.281 6.192 10.763 12.165 16.32 18.11 9.396 10.071 9.396 10.071 11.93 15.14h2a105 105 0 0 1 4.188 5.063c2.67 3.342 5.28 6.406 8.312 9.437 2.763 2.763 5.135 5.46 7.563 8.5 4.94 6.145 10.319 11.836 15.722 17.574 4.51 4.807 8.803 9.783 13.098 14.781 6.368 7.384 12.83 14.647 19.472 21.786 3.29 3.556 6.468 7.202 9.645 10.859q2.245 2.505 4.5 5a722 722 0 0 1 7.938 8.938 537 537 0 0 0 8.437 9.375c3.4 3.72 6.652 7.512 9.813 11.437 8.94 11.064 8.94 11.064 13.312 13.25l2-4a223 223 0 0 1 4.125-5.562 584 584 0 0 0 8.813-11.875c2.906-4.018 5.897-7.958 8.937-11.875a370 370 0 0 0 9.75-13.188c5.04-7.121 10.325-14.04 15.627-20.966 3.953-5.168 7.858-10.359 11.658-15.64 8.374-11.598 16.945-23.05 25.55-34.477a894 894 0 0 0 12.103-16.542c4.37-6.09 8.87-12.043 13.5-17.937 5.535-7.053 10.734-14.273 15.855-21.63 4.471-6.25 9.231-12.264 13.977-18.308a230 230 0 0 0 8.171-11.227c8.408-12.059 17.371-23.747 26.34-35.391a382 382 0 0 0 10.855-14.906c2.882-4.103 5.905-8.1 8.927-12.101l3.968-5.273 1.969-2.613c3.666-4.867 7.318-9.746 10.973-14.622q2.975-3.964 5.96-7.922a995 995 0 0 0 16.579-22.644c5.265-7.354 10.76-14.528 16.3-21.676a396 396 0 0 0 9.875-13.375c4.756-6.715 9.742-13.233 14.758-19.754 6.875-9.012 13.543-18.177 20.23-27.328 8.672-11.857 17.502-23.594 26.333-35.332a2682 2682 0 0 0 17.788-23.97 669 669 0 0 1 10.329-13.679 348 348 0 0 0 9.5-12.875c3.908-5.526 8.001-10.868 12.188-16.187 4.435-5.653 8.668-11.357 12.687-17.312 4.508-6.68 9.393-12.925 14.477-19.172 3.611-4.537 6.938-9.24 10.273-13.98 3.998-5.576 8.207-10.986 12.39-16.423 3.948-5.172 7.78-10.422 11.614-15.68 3.343-4.538 6.781-8.998 10.23-13.456 3.036-3.94 6.02-7.916 8.996-11.899a2917 2917 0 0 1 5.133-6.844 2413 2413 0 0 0 16.387-22.046 938 938 0 0 1 14.39-19.086C898.412 32.869 903.196 26.426 908 20l6.563-8.75 2.94-3.922L923 0c3.97-.39 7.66-.525 11.632-.486l3.636-.011c3.978-.008 7.954.014 11.931.036l8.26.003q8.66.006 17.319.046c7.422.034 14.844.042 22.266.04q8.528.003 17.054.026 4.107.01 8.215.012c3.814.005 7.629.022 11.444.043l3.47-.002c2.593.021 5.185.144 7.773.293v2l4 2a100 100 0 0 1 4.484 4.324l2.586 2.62 2.68 2.743q2.613 2.666 5.234 5.325l2.335 2.39c2.09 2.025 4.26 3.969 6.458 5.877 4.447 3.918 8.644 8.033 12.809 12.244l2.373 2.385q3.711 3.73 7.416 7.467 4.914 4.953 9.836 9.898l2.279 2.304c5.284 5.31 5.284 5.31 7.51 6.423v2h2v2h2v2l4 2a502 502 0 0 1 7 8c2.814 2.857 5.64 5.69 8.5 8.5A281 281 0 0 1 1155 109a228 228 0 0 0 4.5 4.5c4.048 3.993 7.781 8.198 11.5 12.5l4 4v2h2a592 592 0 0 1 7 8l4 4c3.86 3.86 7.41 7.889 11 12l3.5 3.5c3.688 3.688 7.066 7.575 10.5 11.5l3.938 3.875C1220 178 1220 178 1220 180h2a397 397 0 0 1 7 8q3.98 4.3 8 8.563l4.063 4.316a486 486 0 0 0 7.738 7.922c3.588 3.588 6.865 7.373 10.199 11.199 5.176 5.699 10.368 11.368 15.813 16.813 3.584 3.584 6.857 7.365 10.187 11.187 5.176 5.699 10.368 11.368 15.813 16.813a139 139 0 0 1 6.406 6.875c3.734 4.259 7.573 8.387 11.468 12.5 9.081 9.61 18.073 19.294 26.895 29.144 2.984 3.293 6.013 6.542 9.043 9.793 4.549 4.886 8.985 9.846 13.375 14.875q2.839 3.067 5.688 6.125c5.251 5.664 10.282 11.484 15.28 17.371 4.034 4.662 8.22 9.17 12.438 13.664C1408 382.38 1408 382.38 1408 386h-2l-2 4a283 283 0 0 1-6.562 7.063c-4.139 4.373-8.19 8.725-11.938 13.437-4.67 5.847-9.806 11.215-14.937 16.656-4.422 4.77-8.635 9.696-12.844 14.653-6.125 7.19-12.547 14.075-19.032 20.941-4.766 5.061-9.394 10.185-13.874 15.5-4.782 5.658-9.85 10.89-15.133 16.078-3.415 3.405-6.548 7.008-9.68 10.672-6.45 7.298-13.104 14.4-19.762 21.508a372 372 0 0 0-7.176 7.992c-3.208 3.667-6.618 7.056-10.062 10.5a1592 1592 0 0 0-7 8c-7.305 8.08-14.755 16.02-22.227 23.945C1231 580 1231 580 1230 582h-2l-2 4a394 394 0 0 1-5.871 5.879c-3.225 3.213-6.142 6.686-9.129 10.121-5.034 5.51-10.12 10.973-15.195 16.445l-3.118 3.367-2.8 3.02a415 415 0 0 0-6.25 7.031c-3.748 4.263-7.607 8.393-11.512 12.512-4.997 5.284-9.945 10.6-14.781 16.031-3.114 3.446-6.293 6.83-9.469 10.219A578 578 0 0 0 1134 686a2305 2305 0 0 1-8.879 9.629c-6.17 6.665-12.32 13.347-18.371 20.121-5.266 5.87-10.69 11.593-16.09 17.34-5.87 6.272-11.662 12.602-17.285 19.097a164 164 0 0 1-7.625 8.063C1062 764 1062 764 1059 768c-6 0-6 0-8.168-1.95l-2.02-2.737-2.324-3.04L1044 757a657 657 0 0 0-5.5-6.562l-2.797-3.301a402 402 0 0 0-7.453-8.387c-3.269-3.597-6.282-7.317-9.227-11.187-3.605-4.566-7.447-8.93-11.253-13.329L1005 711l-2.426-2.672L1001 706c1.067-4.27 2.008-5.438 4.938-8.562l2.457-2.657L1011 692c4.867-5.258 9.678-10.466 14-16.187l3-3.813h2l2-4 7-7a240 240 0 0 0 3.813-4.937L1046 652h2l2-4a213 213 0 0 1 5.563-6.125c5.34-5.68 5.34-5.68 6.437-7.875h2l2-4a247 247 0 0 1 6.188-6.75c4.708-5.003 9.312-10.058 13.812-15.25a1947 1947 0 0 1 4.5-5 785 785 0 0 0 8-9c3.402-3.888 6.852-7.727 10.313-11.562A684 684 0 0 0 1114.5 576a785 785 0 0 1 8-9c4.86-5.391 9.657-10.83 14.355-16.363 5.199-6.116 10.469-11.96 16.145-17.637a383 383 0 0 0 4-4.937c5.12-6.37 10.722-12.25 16.352-18.168 4.941-5.276 9.674-10.572 13.96-16.395L1190 490h2l2-4a764 764 0 0 1 6.527-6.469c2.375-2.43 4.486-4.933 6.598-7.594 3.9-4.877 8.08-9.405 12.375-13.937 5-5.28 9.743-10.626 14.277-16.305 5.525-6.699 11.616-12.924 17.563-19.246 5.797-6.19 11.374-12.44 16.676-19.058 2.78-3.35 5.878-6.343 8.984-9.391 4-4.187 4-4.187 7-8-1.657-6.628-6.758-10.758-11.5-15.5-3.692-3.692-7.083-7.553-10.5-11.5-5.722-6.527-11.665-12.72-17.91-18.75C1242 338 1242 338 1242 336h-2l-5.832-7.32c-4.785-5.558-10.016-10.646-15.252-15.777A234 234 0 0 1 1205 298c-5.837-6.665-11.943-12.97-18.234-19.207-3.426-3.46-6.58-7.112-9.766-10.793-5.817-6.328-11.641-12.644-17.723-18.719a147 147 0 0 1-6.715-7.219A169 169 0 0 0 1145 234a149 149 0 0 1-7.25-7.75c-4.244-4.81-8.767-9.249-13.371-13.71C1122 210 1122 210 1122 208h-2a435 435 0 0 1-7-8l-2.937-2.875C1108 195 1108 195 1108 193h-2a321 321 0 0 1-4.648-5.363c-4.026-4.514-8.419-8.666-12.754-12.88C1086 172 1086 172 1086 170h-2a300 300 0 0 1-4.781-5.496c-3.484-3.931-7.283-7.535-11.059-11.184C1066 151 1066 151 1066 149l-3-1a331 331 0 0 1-4.829-5.54c-5.229-5.924-11.049-11.329-16.692-16.855l-2.913-2.878-2.658-2.607C1034 118 1034 118 1034 116h-2a332 332 0 0 1-4.918-5.625c-3.65-4.164-7.637-7.993-11.582-11.875-6.578-6.474-12.932-13.014-18.687-20.25C995 76 995 76 991 72c-5.262 1.315-6.048 3.354-9.125 7.75-3.487 4.9-6.99 9.756-10.687 14.5-4.686 6.047-9.207 12.207-13.725 18.379-4.144 5.637-8.397 11.176-12.713 16.683a471 471 0 0 0-14.207 19.149c-3.915 5.449-8.033 10.739-12.125 16.055-3.507 4.601-6.938 9.253-10.356 13.922-5.844 7.969-11.862 15.772-17.953 23.554a406 406 0 0 0-9.07 12.192C876.45 220.522 871.703 226.746 867 233l-6.375 8.5c-17.25 23-17.25 23-20.43 27.238q-3.041 4.057-6.078 8.117a2887 2887 0 0 1-17.367 22.957c-4.668 6.114-9.299 12.243-13.79 18.489-2.49 3.428-5.037 6.812-7.585 10.199-4.539 6.034-9.032 12.1-13.5 18.188a914 914 0 0 1-14.258 18.886c-3.215 4.209-6.357 8.47-9.492 12.738-9.692 13.193-19.548 26.253-29.484 39.262a661 661 0 0 0-11.399 15.375c-3.309 4.503-6.72 8.927-10.117 13.363a689 689 0 0 0-15.852 21.52c-3.066 4.273-6.291 8.412-9.515 12.566-3.884 5.072-7.658 10.224-11.438 15.373a1691 1691 0 0 1-11.508 15.479 1353 1353 0 0 0-11.125 15c-4.916 6.726-9.91 13.392-14.917 20.05a1955 1955 0 0 0-13.082 17.638c-3.923 5.338-7.877 10.641-11.938 15.875a348 348 0 0 0-9.5 12.875c-3.875 5.476-7.921 10.784-12.062 16.062-5.994 7.645-11.718 15.449-17.372 23.348-3.166 4.387-6.494 8.631-9.816 12.902a2389 2389 0 0 0-6.312 8.75 629 629 0 0 1-14.051 18.809c-3.753 4.898-7.387 9.882-11.034 14.86-4.546 6.186-9.183 12.3-13.853 18.394a639 639 0 0 0-15.07 20.48c-4.03 5.576-8.231 11.021-12.446 16.459l-1.914 2.486-1.993 2.49C480 751 480 751 477.901 755.213c-2.854 5.195-5.454 8.839-9.901 12.787-8.984 2.478-17.7 2.182-26.957 1.941q-3.951-.016-7.902-.015a899 899 0 0 1-16.504-.204c-7.047-.148-14.089-.185-21.137-.184a1565 1565 0 0 1-16.293-.117q-3.898-.042-7.795-.056c-3.63-.022-7.255-.097-10.884-.187l-3.238.006c-5.845-.209-8.01-.915-12.292-5.021L342 760a1234 1234 0 0 0-7-7.5 575 575 0 0 1-14-15.5c-6.338-6.95-12.763-13.819-19.187-20.687-3.96-4.235-7.89-8.487-11.75-12.813a196 196 0 0 0-7.688-8.125c-3.649-3.649-6.989-7.48-10.375-11.375-2.732-3.002-5.48-5.99-8.23-8.977a801 801 0 0 1-7.457-8.273 223 223 0 0 0-8.438-8.875c-3.822-3.822-7.329-7.797-10.875-11.875-3.978-4.354-7.99-8.676-12-13-11.414-12.327-11.414-12.327-16.375-17.875-3.857-4.307-7.798-8.53-11.75-12.75A578 578 0 0 1 183 587c-3-3.27-6.015-6.526-9.031-9.781a687 687 0 0 1-7.344-8.094c-4.975-5.556-10.087-10.981-15.195-16.414a370 370 0 0 1-6.89-7.672c-3.595-4.101-7.294-8.076-11.04-12.039-4.952-5.239-9.757-10.571-14.5-16l-2.937-2.875C114 512 114 512 114 510h-2v-2h-2a98 98 0 0 1-3.937-4.812c-4.189-5.248-8.711-9.937-13.5-14.633C89.188 485.19 86.1 481.617 83 478q-2.336-2.631-4.687-5.25l-2.2-2.453c-1.98-2.153-4.044-4.228-6.113-6.297v-2h-2a236 236 0 0 1-4.809-5.453c-2.502-2.909-5.09-5.727-7.691-8.547A692 692 0 0 1 43 434a2704 2704 0 0 0-9-10 1538 1538 0 0 1-16-18q-3.387-3.77-6.785-7.531C8.11 395.009 5.06 391.499 2 388l-2-2c1.164-4.657 2.725-6.177 6-9.625l3.023-3.223L12 370c4.665-5.065 9.188-10.192 13.5-15.562 2.842-3.518 5.76-6.783 9-9.938 4.035-3.93 7.522-8.141 11.043-12.531C52.233 323.886 59.587 316.413 67 309q3.509-3.993 7-8a2252 2252 0 0 1 9.426-10.145C86 288 86 288 88 285h2l2-4a207 207 0 0 1 6.188-6.25A248 248 0 0 0 112 260l8-8q3.502-3.998 7-8 3.731-4.05 7.5-8.062l3.781-4.036C141.8 228.21 145.394 224.606 149 221c3.215-3.596 6.368-7.18 9.313-11l1.687-2h2v-2h2v-2h2l2-4a481 481 0 0 1 6.637-6.64c2.04-2.038 3.964-4.19 5.863-6.36 3.298-3.769 6.743-7.26 10.305-10.773 3.223-3.27 6.18-6.766 9.195-10.227l7-7 3.5-4c3.359-3.839 6.895-7.395 10.5-11l3.188-3.687c4.069-4.604 8.36-8.892 12.75-13.188 3.51-3.582 6.77-7.341 10.062-11.125 6.546-7.114 13.122-14.205 20-21 5.087-5.087 9.727-10.462 14.313-16L284 76h2l2-4a318 318 0 0 1 7.688-7.75A273 273 0 0 0 311 48a325 325 0 0 1 5.375-5.375c4.516-4.407 4.516-4.407 5.625-6.625h2l2-4c2.18-2.297 4.418-4.54 6.688-6.75 5-4.923 9.73-9.934 14.312-15.25a433 433 0 0 1 4.375-4.375C355 2 355 2 356 0"/><path fill="#ca5c38" d="M1040 0h6v2l4 2a100 100 0 0 1 4.484 4.324l2.586 2.62 2.68 2.743q2.613 2.666 5.234 5.325l2.335 2.39c2.09 2.025 4.26 3.969 6.458 5.877 4.447 3.918 8.644 8.033 12.809 12.244l2.373 2.385q3.711 3.73 7.416 7.467 4.914 4.953 9.836 9.898l2.279 2.304c5.284 5.31 5.284 5.31 7.51 6.423v2h2v2h2v2l4 2a502 502 0 0 1 7 8c2.814 2.857 5.64 5.69 8.5 8.5A281 281 0 0 1 1155 109a228 228 0 0 0 4.5 4.5c4.048 3.993 7.781 8.198 11.5 12.5l4 4v2h2a592 592 0 0 1 7 8l4 4c3.86 3.86 7.41 7.889 11 12l3.5 3.5c3.688 3.688 7.066 7.575 10.5 11.5l3.938 3.875C1220 178 1220 178 1220 180h2a397 397 0 0 1 7 8q3.98 4.3 8 8.563l4.063 4.316a486 486 0 0 0 7.738 7.922c3.588 3.588 6.865 7.373 10.199 11.199 5.176 5.699 10.368 11.368 15.813 16.813 3.584 3.584 6.857 7.365 10.187 11.187 5.176 5.699 10.368 11.368 15.813 16.813a139 139 0 0 1 6.406 6.875c3.734 4.259 7.573 8.387 11.468 12.5 9.081 9.61 18.073 19.294 26.895 29.144 2.984 3.293 6.013 6.542 9.043 9.793 4.549 4.886 8.985 9.846 13.375 14.875q2.839 3.067 5.688 6.125c5.251 5.664 10.282 11.484 15.28 17.371 4.034 4.662 8.22 9.17 12.438 13.664C1408 382.38 1408 382.38 1408 386h-2l-2 4a283 283 0 0 1-6.562 7.063c-4.139 4.373-8.19 8.725-11.938 13.437-4.67 5.847-9.806 11.215-14.937 16.656-4.422 4.77-8.635 9.696-12.844 14.653-6.125 7.19-12.547 14.075-19.032 20.941-4.766 5.061-9.394 10.185-13.874 15.5-4.782 5.658-9.85 10.89-15.133 16.078-3.415 3.405-6.548 7.008-9.68 10.672-6.45 7.298-13.104 14.4-19.762 21.508a372 372 0 0 0-7.176 7.992c-3.208 3.667-6.618 7.056-10.062 10.5a1592 1592 0 0 0-7 8c-7.305 8.08-14.755 16.02-22.227 23.945C1231 580 1231 580 1230 582h-2l-2 4a394 394 0 0 1-5.871 5.879c-3.225 3.213-6.142 6.686-9.129 10.121-5.034 5.51-10.12 10.973-15.195 16.445l-3.118 3.367-2.8 3.02a415 415 0 0 0-6.25 7.031c-3.748 4.263-7.607 8.393-11.512 12.512-4.997 5.284-9.945 10.6-14.781 16.031-3.114 3.446-6.293 6.83-9.469 10.219A578 578 0 0 0 1134 686a2305 2305 0 0 1-8.879 9.629c-6.17 6.665-12.32 13.347-18.371 20.121-5.266 5.87-10.69 11.593-16.09 17.34-5.87 6.272-11.662 12.602-17.285 19.097a164 164 0 0 1-7.625 8.063C1062 764 1062 764 1059 768c-6 0-6 0-8.168-1.95l-2.02-2.737-2.324-3.04L1044 757a657 657 0 0 0-5.5-6.562l-2.797-3.301a402 402 0 0 0-7.453-8.387c-3.269-3.597-6.282-7.317-9.227-11.187-3.605-4.566-7.447-8.93-11.253-13.329L1005 711l-2.426-2.672L1001 706c1.067-4.27 2.008-5.438 4.938-8.562l2.457-2.657L1011 692c4.867-5.258 9.678-10.466 14-16.187l3-3.813h2l2-4 7-7a240 240 0 0 0 3.813-4.937L1046 652h2l2-4a213 213 0 0 1 5.563-6.125c5.34-5.68 5.34-5.68 6.437-7.875h2l2-4a247 247 0 0 1 6.188-6.75c4.708-5.003 9.312-10.058 13.812-15.25a1947 1947 0 0 1 4.5-5 785 785 0 0 0 8-9c3.402-3.888 6.852-7.727 10.313-11.562A684 684 0 0 0 1114.5 576a785 785 0 0 1 8-9c4.86-5.391 9.657-10.83 14.355-16.363 5.199-6.116 10.469-11.96 16.145-17.637a383 383 0 0 0 4-4.937c5.12-6.37 10.722-12.25 16.352-18.168 4.941-5.276 9.674-10.572 13.96-16.395L1190 490h2l2-4a764 764 0 0 1 6.527-6.469c2.375-2.43 4.486-4.933 6.598-7.594 3.9-4.877 8.08-9.405 12.375-13.937 5-5.28 9.743-10.626 14.277-16.305 5.525-6.699 11.616-12.924 17.563-19.246 5.797-6.19 11.374-12.44 16.676-19.058 2.78-3.35 5.878-6.343 8.984-9.391 4-4.187 4-4.187 7-8-1.657-6.628-6.758-10.758-11.5-15.5-3.692-3.692-7.083-7.553-10.5-11.5-5.722-6.527-11.665-12.72-17.91-18.75C1242 338 1242 338 1242 336h-2l-5.832-7.32c-4.785-5.558-10.016-10.646-15.252-15.777A234 234 0 0 1 1205 298c-5.837-6.665-11.943-12.97-18.234-19.207-3.426-3.46-6.58-7.112-9.766-10.793-5.817-6.328-11.641-12.644-17.723-18.719a147 147 0 0 1-6.715-7.219A169 169 0 0 0 1145 234a149 149 0 0 1-7.25-7.75c-4.244-4.81-8.767-9.249-13.371-13.71C1122 210 1122 210 1122 208h-2a435 435 0 0 1-7-8l-2.937-2.875C1108 195 1108 195 1108 193h-2a321 321 0 0 1-4.648-5.363c-4.026-4.514-8.419-8.666-12.754-12.88C1086 172 1086 172 1086 170h-2a300 300 0 0 1-4.781-5.496c-3.484-3.931-7.283-7.535-11.059-11.184C1066 151 1066 151 1066 149l-3-1a331 331 0 0 1-4.829-5.54c-5.229-5.924-11.049-11.329-16.692-16.855l-2.913-2.878-2.658-2.607C1034 118 1034 118 1034 116h-2a332 332 0 0 1-4.918-5.625c-3.65-4.164-7.637-7.993-11.582-11.875-6.578-6.474-12.932-13.014-18.687-20.25C995 76 995 76 991 72c-1-5-1-5 .45-7.55l2.237-2.763 2.536-3.207L999 55q2.825-3.741 5.625-7.5a11875 11875 0 0 1 11.855-15.792 2304 2304 0 0 1 3.792-5.03 440 440 0 0 0 9.583-13.174l1.888-2.67c1.726-2.451 3.431-4.916 5.136-7.38z"/><path fill="#cc5f3a" d="M356 0h6c3.188 3.25 3.188 3.25 4.95 5.453 2.393 2.974 4.954 5.748 7.55 8.547 4.24 4.606 8.378 9.289 12.5 14l4 4v2h2c3.345 3.63 6.493 7.394 9.66 11.18 4.057 4.832 8.062 9.542 12.527 14.008C418 62 418 62 418 64h2c-1.246 6.231-3.438 7.79-8 12.125-4.416 4.211-8.531 8.437-12.336 13.2-4.714 5.868-9.907 11.109-15.289 16.362-6.042 5.926-11.84 11.902-17.375 18.313a325 325 0 0 1-5.375 5.375c-4.516 4.407-4.516 4.407-5.625 6.625h-2l-2 4a207 207 0 0 1-6.187 6.25c-4.86 4.73-9.365 9.63-13.813 14.75a1243 1243 0 0 1-7.937 8.5l-4.028 4.281a435 435 0 0 1-8.101 8.25c-3.826 3.86-7.374 7.865-10.934 11.969q-3.98 4.3-8 8.563l-4.062 4.316a412 412 0 0 1-7.875 8.023C278 218 278 218 277 220h-2l-2 4a120 120 0 0 1-4.687 4.75c-3.078 3.012-5.973 6.004-8.813 9.25-3.648 4.17-7.498 8.032-11.46 11.898C246 252 246 252 245 254h-2l-2 4a242 242 0 0 1-6.687 6.75A272 272 0 0 0 220 280q-2.984 3.015-6 6a231 231 0 0 0-13 14c-5.753 6.584-11.758 12.83-18.008 18.945-3.486 3.56-6.721 7.297-9.992 11.055-6.546 7.114-13.122 14.205-20 21-3.864 3.864-7.424 7.87-11 12a1257 1257 0 0 1-5.5 6.063l-2.828 3.101c-2.214 2.35-4.554 4.58-6.922 6.774L124 382c1.212 6.058 3.24 7.795 7.5 12.188l3.855 4.027L139 402c4.685 5.05 9.185 10.193 13.5 15.563 2.842 3.517 5.76 6.782 9 9.937 4.036 3.931 7.524 8.142 11.043 12.535 3.716 4.484 7.7 8.707 11.672 12.965 3.341 3.6 6.564 7.293 9.785 11 2.259 2.518 4.526 5.029 6.793 7.54a639 639 0 0 1 6.02 6.835A164 164 0 0 0 214 486v2h2c1.351 1.512 2.63 3.088 3.875 4.688 5.391 6.743 11.24 13 17.125 19.312 5.034 5.487 9.928 11.076 14.75 16.75 5.281 6.192 10.763 12.165 16.32 18.11 9.396 10.071 9.396 10.071 11.93 15.14h2a105 105 0 0 1 4.188 5.063c2.67 3.342 5.28 6.406 8.312 9.437 2.763 2.763 5.135 5.46 7.563 8.5 4.94 6.145 10.319 11.836 15.722 17.574 4.51 4.807 8.803 9.783 13.098 14.781 6.368 7.384 12.83 14.647 19.472 21.786 3.29 3.556 6.468 7.202 9.645 10.859q2.245 2.505 4.5 5a722 722 0 0 1 7.938 8.938 537 537 0 0 0 8.437 9.375c4.192 4.587 8.15 9.316 12.02 14.18C395 690 395 690 397.637 692.57 400 695 400 695 402 699c-1.308 5.23-3.945 8.247-7.187 12.563l-3.848 5.148-1.997 2.66c-3.058 4.085-6.073 8.202-9.093 12.317a1971 1971 0 0 1-16.246 21.746c-2.334 3.166-4.49 6.39-6.629 9.691L354 767l-4-2 1-4h-2v2c-6.258-.983-9.342-5.106-13.437-9.625l-3.81-4.164a1180 1180 0 0 1-7.378-8.356 475 475 0 0 0-8.937-9.918c-1.03-1.11-2.058-2.222-3.118-3.367a5354 5354 0 0 0-10.507-11.258c-3.96-4.234-7.89-8.486-11.75-12.812a196 196 0 0 0-7.688-8.125c-3.649-3.649-6.989-7.48-10.375-11.375-2.732-3.002-5.48-5.99-8.23-8.977a801 801 0 0 1-7.457-8.273 223 223 0 0 0-8.438-8.875c-3.822-3.822-7.329-7.797-10.875-11.875-3.978-4.354-7.99-8.676-12-13-11.414-12.327-11.414-12.327-16.375-17.875-3.857-4.307-7.798-8.53-11.75-12.75A578 578 0 0 1 183 587c-3-3.27-6.015-6.526-9.031-9.781a687 687 0 0 1-7.344-8.094c-4.975-5.556-10.087-10.981-15.195-16.414a370 370 0 0 1-6.89-7.672c-3.595-4.101-7.294-8.076-11.04-12.039-4.952-5.239-9.757-10.571-14.5-16l-2.937-2.875C114 512 114 512 114 510h-2v-2h-2a98 98 0 0 1-3.937-4.812c-4.189-5.248-8.711-9.937-13.5-14.633C89.188 485.19 86.1 481.617 83 478q-2.336-2.631-4.687-5.25l-2.2-2.453c-1.98-2.153-4.044-4.228-6.113-6.297v-2h-2a236 236 0 0 1-4.809-5.453c-2.502-2.909-5.09-5.727-7.691-8.547A692 692 0 0 1 43 434a2704 2704 0 0 0-9-10 1538 1538 0 0 1-16-18q-3.387-3.77-6.785-7.531C8.11 395.009 5.06 391.499 2 388l-2-2c1.164-4.657 2.725-6.177 6-9.625l3.023-3.223L12 370c4.665-5.065 9.188-10.192 13.5-15.562 2.842-3.518 5.76-6.783 9-9.938 4.035-3.93 7.522-8.141 11.043-12.531C52.233 323.886 59.587 316.413 67 309q3.509-3.993 7-8a2252 2252 0 0 1 9.426-10.145C86 288 86 288 88 285h2l2-4a207 207 0 0 1 6.188-6.25A248 248 0 0 0 112 260l8-8q3.502-3.998 7-8 3.731-4.05 7.5-8.062l3.781-4.036C141.8 228.21 145.394 224.606 149 221c3.215-3.596 6.368-7.18 9.313-11l1.687-2h2v-2h2v-2h2l2-4a481 481 0 0 1 6.637-6.64c2.04-2.038 3.964-4.19 5.863-6.36 3.298-3.769 6.743-7.26 10.305-10.773 3.223-3.27 6.18-6.766 9.195-10.227l7-7 3.5-4c3.359-3.839 6.895-7.395 10.5-11l3.188-3.687c4.069-4.604 8.36-8.892 12.75-13.188 3.51-3.582 6.77-7.341 10.062-11.125 6.546-7.114 13.122-14.205 20-21 5.087-5.087 9.727-10.462 14.313-16L284 76h2l2-4a318 318 0 0 1 7.688-7.75A273 273 0 0 0 311 48a325 325 0 0 1 5.375-5.375c4.516-4.407 4.516-4.407 5.625-6.625h2l2-4c2.18-2.297 4.418-4.54 6.688-6.75 5-4.923 9.73-9.934 14.312-15.25a433 433 0 0 1 4.375-4.375C355 2 355 2 356 0"/><path fill="#c45834" d="M356 0h6c3.188 3.25 3.188 3.25 4.95 5.453 2.393 2.974 4.954 5.748 7.55 8.547 4.24 4.606 8.378 9.289 12.5 14l4 4v2h2c3.345 3.63 6.493 7.394 9.66 11.18 4.057 4.832 8.062 9.542 12.527 14.008C418 62 418 62 418 64h2c-1.246 6.231-3.438 7.79-8 12.125-4.416 4.211-8.531 8.437-12.336 13.2-4.714 5.868-9.907 11.109-15.289 16.362-6.042 5.926-11.84 11.902-17.375 18.313a325 325 0 0 1-5.375 5.375c-4.516 4.407-4.516 4.407-5.625 6.625h-2l-2 4a207 207 0 0 1-6.187 6.25c-4.86 4.73-9.365 9.63-13.813 14.75a1243 1243 0 0 1-7.937 8.5l-4.028 4.281a435 435 0 0 1-8.101 8.25c-3.826 3.86-7.374 7.865-10.934 11.969q-3.98 4.3-8 8.563l-4.062 4.316a412 412 0 0 1-7.875 8.023C278 218 278 218 277 220h-2l-2 4a120 120 0 0 1-4.687 4.75c-3.078 3.012-5.973 6.004-8.813 9.25-3.648 4.17-7.498 8.032-11.46 11.898C246 252 246 252 245 254h-2l-2 4a242 242 0 0 1-6.687 6.75A272 272 0 0 0 220 280q-2.984 3.015-6 6a231 231 0 0 0-13 14c-5.753 6.584-11.758 12.83-18.008 18.945-3.486 3.56-6.721 7.297-9.992 11.055-6.546 7.114-13.122 14.205-20 21-3.864 3.864-7.424 7.87-11 12-16.399 18.2-16.399 18.2-22 21-3.27-3.363-3.27-3.363-7-8q-3.825-4.11-7.687-8.187a2031 2031 0 0 1-28.348-30.622 310 310 0 0 0-6.836-7.101c-1.3-1.33-2.601-2.658-3.942-4.027l-3.707-3.715L60 319c2.263-5.657 4.974-8.441 9.188-12.812C75.135 299.99 81.063 293.81 86.312 287L88 285h2l2-4a207 207 0 0 1 6.188-6.25A248 248 0 0 0 112 260l8-8q3.502-3.998 7-8 3.731-4.05 7.5-8.062l3.781-4.036C141.8 228.21 145.394 224.606 149 221c3.215-3.596 6.368-7.18 9.313-11l1.687-2h2v-2h2v-2h2l2-4a481 481 0 0 1 6.637-6.64c2.04-2.038 3.964-4.19 5.863-6.36 3.298-3.769 6.743-7.26 10.305-10.773 3.223-3.27 6.18-6.766 9.195-10.227l7-7 3.5-4c3.359-3.839 6.895-7.395 10.5-11l3.188-3.687c4.069-4.604 8.36-8.892 12.75-13.188 3.51-3.582 6.77-7.341 10.062-11.125 6.546-7.114 13.122-14.205 20-21 5.087-5.087 9.727-10.462 14.313-16L284 76h2l2-4a318 318 0 0 1 7.688-7.75A273 273 0 0 0 311 48a325 325 0 0 1 5.375-5.375c4.516-4.407 4.516-4.407 5.625-6.625h2l2-4c2.18-2.297 4.418-4.54 6.688-6.75 5-4.923 9.73-9.934 14.312-15.25a433 433 0 0 1 4.375-4.375C355 2 355 2 356 0"/><path fill="#c55934" d="M1295 393c2.25 2 2.25 2 5 5l3.375 3.313c3.71 3.773 7.14 7.705 10.625 11.687 3.461 3.739 6.944 7.457 10.426 11.176 4.079 4.364 8.135 8.747 12.152 13.168a307 307 0 0 0 4.656 5C1346 447.452 1346 447.452 1346 453h-3l1 2-3.437.875L1337 457v4h-3l-1 4-3 3-1 3h-3l1 3-2 1-1 4c-1.785 2.297-1.785 2.297-4.062 4.75l-2.465 2.664c-3.432 3.588-6.962 7.075-10.473 10.586a800 800 0 0 0-7 8c-6.453 7.295-13.104 14.4-19.762 21.508a372 372 0 0 0-7.176 7.992c-3.208 3.667-6.618 7.056-10.062 10.5a1592 1592 0 0 0-7 8c-7.305 8.08-14.755 16.02-22.227 23.945C1231 580 1231 580 1230 582h-2l-2 4a394 394 0 0 1-5.871 5.879c-3.225 3.213-6.142 6.686-9.129 10.121-5.034 5.51-10.12 10.973-15.195 16.445l-3.118 3.367-2.8 3.02a415 415 0 0 0-6.25 7.031c-3.748 4.263-7.607 8.393-11.512 12.512-4.997 5.284-9.945 10.6-14.781 16.031-3.114 3.446-6.293 6.83-9.469 10.219A578 578 0 0 0 1134 686a2305 2305 0 0 1-8.879 9.629c-6.17 6.665-12.32 13.347-18.371 20.121-5.266 5.87-10.69 11.593-16.09 17.34-5.87 6.272-11.662 12.602-17.285 19.097a164 164 0 0 1-7.625 8.063C1062 764 1062 764 1059 768c-6 0-6 0-8.168-1.95l-2.02-2.737-2.324-3.04L1044 757a657 657 0 0 0-5.5-6.562l-2.797-3.301a402 402 0 0 0-7.453-8.387c-3.269-3.597-6.282-7.317-9.227-11.187-3.605-4.566-7.447-8.931-11.253-13.329L1005 711l-2.426-2.672L1001 706c1.067-4.27 2.008-5.438 4.938-8.562l2.457-2.657L1011 692c4.867-5.258 9.678-10.466 14-16.187l3-3.813h2l2-4 7-7a240 240 0 0 0 3.813-4.937L1046 652h2l2-4a213 213 0 0 1 5.563-6.125c5.34-5.68 5.34-5.68 6.437-7.875h2l2-4a247 247 0 0 1 6.188-6.75c4.708-5.003 9.312-10.058 13.812-15.25a1947 1947 0 0 1 4.5-5 785 785 0 0 0 8-9c3.402-3.888 6.852-7.727 10.313-11.562A684 684 0 0 0 1114.5 576a785 785 0 0 1 8-9c4.86-5.391 9.657-10.83 14.355-16.363 5.199-6.116 10.469-11.96 16.145-17.637a383 383 0 0 0 4-4.937c5.12-6.37 10.722-12.25 16.352-18.168 4.941-5.276 9.674-10.572 13.96-16.395L1190 490h2l2-4a764 764 0 0 1 6.527-6.469c2.375-2.43 4.486-4.933 6.598-7.594 3.9-4.877 8.08-9.405 12.375-13.937 5-5.28 9.743-10.626 14.277-16.305 4.495-5.45 9.395-10.542 14.223-15.695q3.408-3.654 6.813-7.312l3.269-3.508a253 253 0 0 0 6.918-7.868c3-3.312 3-3.312 8-6.312h2l2-4h5v3h2l1-4 5-1v5h2v-6z"/><path fill="#d46d48" d="M1324 291c4.979 3.886 8.883 8.22 13 13 3.975 4.356 7.99 8.676 12 13 6.424 6.927 12.778 13.89 19 21q2.839 3.067 5.688 6.125c5.251 5.664 10.282 11.484 15.28 17.371 4.034 4.662 8.22 9.17 12.438 13.664C1408 382.38 1408 382.38 1408 386h-2l-2 4a283 283 0 0 1-6.562 7.063c-4.139 4.373-8.19 8.725-11.938 13.437-4.67 5.847-9.806 11.215-14.937 16.656-4.422 4.77-8.635 9.696-12.844 14.653-7.461 8.758-15.362 17.098-23.266 25.457a137 137 0 0 0-6.344 7.343L1326 477l-1-2-2-1 3-1v-2h3l1-5 3-1 1-4h3v-4c2.62-2.478 4.57-3.857 8-5-1.091-5.457-2.082-6.614-5.812-10.5l-3.024-3.191L1333 435a2286 2286 0 0 1-5.937-6.437L1321 422a5075 5075 0 0 1-20.723-22.54A196 196 0 0 0 1295 394h-3l1 4-1 2h-2v-5l-4 1-2 4h-2v-3c-4.171.927-5.929 1.929-9 5l-4 2c2.96-5.918 7.704-10.003 12.324-14.687L1284 386c-1.657-6.628-6.758-10.758-11.5-15.5-3.692-3.692-7.083-7.553-10.5-11.5-5.722-6.527-11.665-12.72-17.91-18.75C1242 338 1242 338 1242 336h-2a105 105 0 0 1-4.187-5.062c-2.911-3.68-5.686-6.76-9.126-10L1224 318l4-2v4l4 2 4 2 3-3 3 3v4c2.989.421 5.992.753 9 1l1 2a402 402 0 0 0 6-3l2 1v-3h2v4c3.063.242 3.063.242 7-.125l3.938-.32L1276 329v-2l2.938-.375L1282 326l1-4c4-1 4-1 7 0l1-2h6l-2 2-3 4h-6l-3 1c4.06 1.51 6.546 2 11 2l2-2 1 3c2.938-.5 2.938-.5 6-2 2-5 2-5 2-9 4 1 4 1 7 5v3l5 1 4-4h3v10l-3 1-1 3h-2l-1 5-2 4 2.375-2.5C1320 342 1320 342 1322 342v-2h2l-2 5 2 1 1-3 2 4h2l-.625-3.437L1328 340l4-1 1-4 3-1 1-4c3.063-.625 3.063-.625 6-1v-2l-3-1v-2h4c-.062-3.375-.062-3.375-1-7l-3-2v-4c-5 0-5 0-8 2l-2-2 2-3-4 1h-3l-1-3h4l-1-5h-3l3-5-3-1z"/><path fill="#d56d48" d="m60 316 2 4a551 551 0 0 0 7 7l7 8 3.5 3.5c3.693 3.693 7.06 7.57 10.5 11.5a2307 2307 0 0 0 10.352 11.098c4.37 4.674 8.701 9.382 13.027 14.097L116 378l2.715 2.93L121 383l2-1 2 5a178 178 0 0 0 6.563 7.188l3.828 4.027L139 402c16.293 17.585 16.293 17.585 19 23-4.812.563-4.812.563-10 0-1.5-3.375-1.5-3.375-2-7l-2-2v-3l-4 2-4-1v-2h-2c.688-3.062.688-3.062 2-6l3 1-3-5h-5c-.625 2.938-.625 2.938-1 6l-3 1v3c-3.5 1.313-3.5 1.313-7 2v-2l-3 1-1 3h-2l-.437 3-.563 3h-3c-2.374 2.49-4.487 5.138-6.648 7.813C101 432 101 432 96 432l-2 5a175 175 0 0 1-5 4l-1 3-3.375-1L81 442l-3 3h-5l-1 2h-3l-1 3-4-1 1 3-1 3 4 1-1 4c-5.58-5.495-10.885-11.063-16-17q-2.244-2.505-4.5-5a722 722 0 0 1-7.937-8.937A659 659 0 0 0 30 419.5c-4.059-4.45-8.039-8.962-12-13.5q-3.387-3.77-6.785-7.531C8.11 395.009 5.06 391.499 2 388l-2-2c1.164-4.657 2.725-6.177 6-9.625l3.023-3.223L12 370c4.665-5.065 9.188-10.192 13.5-15.562 2.842-3.519 5.76-6.783 9-9.938 3.179-3.096 6.036-6.288 8.813-9.75a391 391 0 0 1 11.124-13.187l3.06-3.497z"/><path fill="#c45833" d="m387 718 2 1c-1.704 2.677-3.55 5.262-5.437 7.813-.587.796-1.173 1.593-1.776 2.414-1.918 2.6-3.85 5.187-5.787 7.773l-1.984 2.65q-4.74 6.326-9.508 12.631c-1.851 2.49-3.687 4.997-5.368 7.606-1.591 2.455-3.353 4.797-5.14 7.113l-4-2 1-4h-2v2c-4.929-1.056-7.506-3.033-10.812-6.75l-2.333-2.547c-2.052-2.99-2.374-5.162-2.855-8.703h-2l-2-4 2-2 1-5h2v2h2l-1-5c1.49-7.979 1.49-7.979 3-11l5 1-1 5 4 2v2h2v-4h-2v-3l4 1v2h2v-2h4l1-3 1 3c-1.937 3.188-1.937 3.188-4 6h6v-4h4v2h5l1 5c3-1 3-1 6-4h4l2-5 2-4h3z"/><path fill="#d36c48" d="m1226 316 2 1v3l4 2 4 2 3-3 3 3v4c2.989.421 5.992.753 9 1l1 2a402 402 0 0 0 6-3l2 1v-3h2v4c2.957.102 2.957.102 6.813-.375 6.883-.828 6.883-.828 10.187 1.375l-1 3-5 1 2 4 3-1-.5 2.875-.5 3.125 3 1c-.66.03-.66.03-4 .188l-4 .812v5l-1 1h-7l-3 1 3 3v3l4 1 1 5c-5.022-4.06-9.267-8.431-13.512-13.262-3.634-3.999-7.512-7.735-11.398-11.488C1242 338 1242 338 1242 336h-2a105 105 0 0 1-4.187-5.062c-2.876-3.623-5.662-6.762-9-10L1224 318zm58 25v2l-4 1-1-2c3-1 3-1 5-1"/><path fill="#cc5d39" d="m1203 161 2.105 2.113a838 838 0 0 0 6.008 5.93l3.2 3.144 3.238 3.168C1220 178 1220 178 1220 180h2a397 397 0 0 1 7 8q3.98 4.3 8 8.563l4.063 4.316a406 406 0 0 0 7.785 7.934c2.873 2.905 5.032 5.71 7.152 9.187h-5a253 253 0 0 1-2-6l-5-2v4h-4l-3 1-1 5h-2v-4h-4l1 4h2v2h-3v-2h-2v2h-2c-2.455-4.91-2-8.58-2-14h-2v-3l-2-1 3-1c0-3 0-3-1-5h3c-2-2-2-2-7-4l-1-3 3-1v-2h2l1-4-4-2c-2.743-2.547-4.92-4.881-7-8l-3-1v-3l-4-1c-1.25-4.062-1.25-4.062-2-8"/><path fill="#d56d47" d="M615 413c1 2 1 2 .25 5.625L614 422h-3c-1.65 4.952-.69 9.905-.2 15.008.253 3.795-.013 7.273-.8 10.992h-2v-8l-2 1v3h-2l-1-2-.312 3.25C602 449 602 449 599 453l-1 3h-4v5h-2l-1-3-3-1 .188 3.125c-.188 3.875-.188 3.875-3.063 7L582 469l-2-3-1 2h-4c2.235-4.47 4.936-8.204 7.875-12.25l1.756-2.417c5.708-7.84 11.53-15.591 17.369-23.333l9.7-12.965C614 414 614 414 615 413"/><path fill="#ca765a" d="m384 97 5 1c0 3 0 3-3.035 6.293l-4.027 3.894c-5.219 5.111-10.16 10.286-14.938 15.813a616 616 0 0 1-7.96 7.898C357 134 357 134 356 136h-2l-2 4a207 207 0 0 1-6.187 6.25c-4.86 4.73-9.365 9.63-13.813 14.75a1243 1243 0 0 1-7.937 8.5l-4.028 4.281a460 460 0 0 1-8.3 8.477 164 164 0 0 0-7.548 8.117C301 194 301 194 298 196c0-5 0-5 2-8h2l1-3h3v-3h3v-3l4-3v-2l5-1v-6l2-1v-2l5-2 1-1v-3l5-1v-2h2v-2h4l1-5c3-2 3-2 6-3v-3h3l-1-3h4l-1-3 2-3h5v-4l2-1 1-2 2 1v-4l5-5 3 1-1-3 3-5h5v-3h3l-.687-3.937L378 100c2.938-.875 2.938-.875 6-1z"/><path fill="#d16945" d="m77 459 2 1-1 4h2v4h2v2h6v-2h2v2l2 1-2 1v4h2l1-4h1c1.212 5.576 1.212 5.576 0 8h7c-1 2-1 2-6 5v2h2l1-3h2l1 3-2 4h3v2l4 2 4 2v5l4 2 1 3 4-1v-2l4 1 1-2v3h2v5l-2 1v-3l-5 1c.188 3.563.188 3.563 1 7a159 159 0 0 1-6-5v-2h-2v-2h-2a98 98 0 0 1-3.937-4.812c-4.189-5.248-8.711-9.937-13.5-14.633C89.188 485.19 86.1 481.617 83 478q-2.336-2.631-4.687-5.25l-2.2-2.453c-1.98-2.153-4.044-4.228-6.113-6.297v-2h-2l1-2 3.5 1.063L76 462z"/><path fill="#d26f4e" d="m1287 251 2.133 2.137a1473 1473 0 0 0 5.734 5.695c5.608 5.556 10.971 11.191 16.133 17.168l3.453 3.566 3.735 3.872c1.19 1.215 2.38 2.43 3.605 3.683L1324 290l-4 1-4-3h-2v-6l-5-1v-3l-2-1v-2h-3l-1 4-3 1 1 3h-5v3h-2v2c-2.875 1.188-2.875 1.188-6 2l-2-1v-2l-5 1-1-4 2-2 2-4.125 2-3.875h2v-2h2v-2l3 1 1-1 3-1v-4h-2v-4l-3.437-.187L1288 260c-.937-4.562-.937-4.562-1-9"/><path fill="#c76c4e" d="M1025 676c0 3 0 3-1.062 6-.938 3-.938 3 .062 6 4 .313 4 .313 8 0l1-2 1 2-4 4h-2v2l-4 1-1 3-3-2-2 1-1-4c-4 1-4 1-6 4l3 3v8h-6c3 5 3 5 5 7l5 1v2l4 2v2l5-2v3l-4 4-1 4q-3.95-4.654-7.883-9.324a488 488 0 0 0-6.11-7.07l-2.757-3.168-2.547-2.88L1001 706c1.067-4.27 2.008-5.438 4.938-8.562l2.445-2.641L1011 692q2.661-2.901 5.313-5.812l2.425-2.645c2.18-2.45 4.238-4.964 6.262-7.543"/><path fill="#c55937" d="M292 180h6v2h2c1.25 3 1.25 3 2 6h-2l-.375 3.688c-2.426 7.93-7.826 12.564-13.625 18.312l-2.535 2.54-2.152 2.148C278 218 278 218 277 220h-2l-2 4-2 1c.251-2.344.586-4.68 1-7h2v-2h3v-4l4-1 2-5 2-2 .5-3.625.5-3.375h2l-1-3 2-4 .375-3.25L290 184h4v-2h-2z"/><path fill="#c7603d" d="M350 744h2v4h2v2h-2v2l4 1 1 2 1-2h2l1-2c1 5 1 5-.512 7.965l-2.175 2.972-2.137 3.028L354 767l-4-2 1-4h-2v2c-5.087-1.057-7.632-3.213-11-7.062l-2.437-2.723L334 751c2-1 2-1 6 0 4-1 4-1 6-4l3-1z"/><path fill="#c55532" d="M1070 64h2c.289 2.448.454 4.912.563 7.375.343 7.436.343 7.436 1.437 9.625l-3 1-1 5c-4 .375-4 .375-8 0l-1-1-3 3c-1.855-4.59-2-7.978-2-13h2l1-4 1-2 5-1 3-3v2h2zm-13 16 1 2 1-2z"/><path fill="#c65935" d="M389 690h4l2 2 4 2c1.058 2.644 2.1 5.298 3 8-1.582 2.445-1.582 2.445-3.812 5.125l-2.208 2.695C394 712 394 712 392 713l-1-2-4-1v3h-3l1.063-2.875L386 707l-4-2 1-4h2l2-5 3-1z"/><path fill="#c55632" d="M1116 109h6v3c3.003-.3 6.004-.636 9-1l2 2q-1.454 3.52-3 7h2l1-3 2 1-1-4 3 2v4l-4 3-2 4c-2.875-.75-2.875-.75-6-2h-4l-1 3-4 1c.25-5.437.25-5.437 1-11l-2 1-2-2v-3l3-1-2-2z"/><path fill="#c55633" d="M1122 79c5 2 5 2 8 7l2.75 2.313C1135 91 1135 91 1135.063 95.187L1134 99l-4 2-2-5-2-1-1 1h-3l-3-5-2 5h-5c-1.062-2.875-1.062-2.875-1-6l4-2a402 402 0 0 0 3-6z"/><path fill="#d26944" d="m125 396 1 2h7v2l-2 1-.437 3.5L130 408l-3 1v3c-3.5 1.313-3.5 1.313-7 2v-2l-3 1-1 3h-2l-.437 3-.563 3h-3c-2.374 2.49-4.487 5.138-6.648 7.813C101 432 101 432 96 432c1-5 1-5 2-8h4v2h2v-2h2v-2h2v-2h2v-2h2v-5c2.313-2.812 2.313-2.812 5-5h3l-.125-3.187C120 401 120 401 122.438 397.938c.845-.64 1.69-1.28 2.562-1.938"/><path fill="#c86d4d" d="m1089 729 4 1c-2.125 2.875-2.125 2.875-6 7q-2.473 2.715-4.937 5.438c-.432.471-.432.471-2.614 2.859a406 406 0 0 0-6.074 6.89 164 164 0 0 1-7.625 8.063C1062 764 1062 764 1059 768c-6 0-6 0-9.937-3.875L1046 760l1-2c4 2 4 2 5 4 2 1 2 1 6 2l1-4h4v-3h2v-4h4v-3l5-1a216 216 0 0 0 1-11c3.756-5.008 6.02-4.905 12-6l2-1z"/><path fill="#d68769" d="M934 135h2c1 5 1 5-1.254 8.54l-3.308 4.085-3.598 4.523-1.907 2.386c-3.257 4.155-6.337 8.44-9.433 12.716-3.58 4.944-7.03 9.58-11.5 13.75-.187-4.437-.187-4.437 0-9l3-1 1-2h2v-2h2l1-4h3v-4h2l-1-4 5-3-5-1c2.138-4.277 4.03-6.382 8-9l1 5h2l-1-4 4-2v-3h2z"/><path fill="#d26641" d="m148 433 3 1 1 4-4-2zm-2 5h4v5l2 2a105 105 0 0 1-4 5v2h-3l1 5 2 1v2l1 1 3-5 4 1c-2.687 4.688-2.687 4.688-6 9l-1-2-5 3h-4c-1-4-1-4 1-8v-4h-3v-2h-2v-2h4v-5h4c2-4 2-4 2-8"/><path fill="#cb7a5e" d="m240 250 5 1v3h-2l-2 4a242 242 0 0 1-6.687 6.75A272 272 0 0 0 220 280c-3.017 3.05-6.066 6.066-9.117 9.082a147 147 0 0 0-7.008 7.606C201 300 201 300 199 301c-.812-2.875-.812-2.875-1-6l6-2v-3h2v-2h3v-2h2l1-3 2 1 1-5h4v-6c3-2 3-2 6-3v-2l5-1v-4h3l-1-3h2v-2h2v-2h2l.813-3.062z"/><path fill="#cf7050" d="M214 488h2c1.351 1.512 2.63 3.088 3.875 4.688 6.227 7.789 13.063 14.992 19.89 22.253C246 521.676 246 521.676 246 525c-3.75-.312-3.75-.312-8-1-4 0-4 0-6 1l-2-1c.303-2.337.639-4.67 1-7l-1-3h2v-2l-3-1v-4l-4-2-3-2v-3l-3-3-1-3-2-1-1 3-3-3 2-1z"/><path fill="#d58263" d="M89 483h2l1 2 5 2 1-3h2l1 3-2 4h3v2l4 2 4 2v5l4 2 1 3 4-1v-2l4 1 1-2v3h2v5l-2 1v-3l-5 1c.188 3.563.188 3.563 1 7a159 159 0 0 1-6-5v-2h-2v-2h-2a98 98 0 0 1-3.937-4.812c-4.274-5.372-8.917-10.137-13.876-14.875C90 486 90 486 89 483"/><path fill="#cd7659" d="m1203 161 2.105 2.113a838 838 0 0 0 6.008 5.93l3.2 3.144 3.238 3.168C1220 178 1220 178 1220 180h2a226 226 0 0 1 4.781 5.426c3.574 4.146 7.331 8.124 11.059 12.133C1240 200 1240 200 1240 201c-3.5-.312-3.5-.312-7-1v-2l-3-1-3-3-5 2-4-2-1-3 3-1v-2h2l1-4-4-2c-2.743-2.547-4.92-4.881-7-8l-3-1v-3l-4-1c-1.25-4.062-1.25-4.062-2-8"/><path fill="#c96c4d" d="M316 718c1.375 3.063 1.375 3.063 2 6v-2h2l-1.062 3.375L318 729l3 2v2l5-1v-2l3 1-2 2 4 3 1 4-2 2 1 3h2l1 5c-4.979-3.886-8.883-8.22-13-13a2070 2070 0 0 0-9.426-10.145C309 724 309 724 307 721l1-3c3.02-1.51 4.83-.99 8 0"/><path fill="#d57b5b" d="m889 195 3 3c-1.963 3.925-4.187 7.193-6.75 10.75l-2.695 3.742A702 702 0 0 1 874 224l-1-4h-2l1-3h5c-.062-3.5-.062-3.5-1-7h-2v2h-6l2-4-2-1h2l1-4 1-3h2l3 5c3.688 1.75 3.688 1.75 7 2 .188-3.312.188-3.312 0-7l4-1z"/><path fill="#d07658" d="M1165 254c5.941 0 6.672 1.33 11 5l3-1q1.575 2.962 3 6h2l.875 5.25C1186 275 1186 275 1190 279c4.001 1.084 5.91 1.022 10 0 .356 3.701.178 6.466-1 10l2 1c-3 0-3 0-6.11-2.781-6.14-6.273-12.175-12.552-17.89-19.219a2228 2228 0 0 0-9.621-10.34C1165 255 1165 255 1165 254m15 4 2 1Z"/><path fill="#c96d4e" d="m1041 726 3 1a430 430 0 0 1-2 11h2l-2 4h-2l2 3-1 5h2l2 5 2 2h-3c-2.383-2.492-2.383-2.492-5.125-5.875-3.573-4.352-7.18-8.613-11-12.75C1024 734 1024 734 1023 731l4 1v2q3.489.579 7 1l2 1c4-3 4-3 4.563-6.75z"/><path fill="#c55532" d="m1139 144 1 4h-2v2h2v3h-2v2c-4.14.986-7.68 1-12 1l-2-2-3 1-1 5h-2c-.75-4.5-.75-4.5-1-9h2l2-3 4 1 2-4c5-.187 5-.187 10 0z"/><path fill="#c45733" d="M1040 0h4v3h2v2h2l-1 2-4-1-2 1-.25 4.438L1040 16c-2.937 1.313-2.937 1.313-6 2l-2 4h-2l-1-2c-2 3-2 3-3 8h-4l-3 2c2.125-4.25 4.75-7.886 7.574-11.695a385 385 0 0 0 5.258-7.36l2.918-4.132 2.734-3.918z"/><path fill="#c35733" d="M1064 128h2v6h-2c1.309 3.01 2.645 6.01 4 9v3h2l1 3 4 1 1 2h4c-.125 3.438-.125 3.438-1 7l-2 1v-3h-2v-2h-2v-2h-2v-2h-2l-1-2-4-2-2-4-3.062-1.937C1056 139 1056 139 1055 134l2-5c3.625.313 3.625.313 7 1z"/><path fill="#d7896c" d="M493 727h4c-2.342 4.684-5.25 8.543-8.375 12.75l-1.874 2.529a2810 2810 0 0 1-15.52 20.694C469 766 469 766 468 768h-2c-.437-4-.437-4 0-8h5l1-5 3-1-1-3h3l-1-4 4-4h2c2-3 2-3 2-6h2v-3h3l2-5z"/><path fill="#d68568" d="m815 295 3 1c-1.957 4.893-4.062 7.974-7.25 12.125-3.592 4.697-7.151 9.405-10.586 14.219l-1.913 2.663a652 652 0 0 0-3.705 5.224c-1.432 1.986-2.977 3.89-4.546 5.769l-2-2v-3h3l-1-4 4-3v-2h2v-2h-2v-2l4-1 1 1 .25-2.875L800 312l4-2a524 524 0 0 0 4-5h2v-2l-2-1 2-2 3 1v-3h2z"/><path fill="#c86646" d="M1286 385c3.926 1.963 6.097 3.774 9 7v2h-3l1 4-1 2h-2v-5l-4 1-2 4h-2v-3c-4.171.927-5.929 1.929-9 5l-4 2c2.272-4.544 5.03-7.483 8.5-11.187l3.531-3.793C1284 386 1284 386 1286 385"/><path fill="#d68061" d="M132 396c9.278 7.501 20.603 18.207 26 29-4.812.563-4.812.563-10 0-1.5-3.375-1.5-3.375-2-7l-2-2v-3l-4 2-4-1v-2h-2c.688-3.062.688-3.062 2-6l3 1-3-5-5-1 2-1z"/><path fill="#c86544" d="M1025 676c0 3 0 3-1.062 6-.938 3-.938 3 .062 6 4 .313 4 .313 8 0l1-2 1 2-4 4h-2v2l-4 1-1 3-3-2-2 1-1-4h-4c1.213-4.854 3.293-6.992 6.563-10.75l3.066-3.547z"/><path fill="#d2795a" d="M120 517c4.835 1.182 5.87 1.826 9 6v2c4.75 1 4.75 1 10 1 2.438-2.875 2.438-2.875 4-6l3-1a110 110 0 0 1-2 7h-2l1 5-3 1c1.313 5.063 1.313 5.063 3 10-5.246-4.283-9.609-8.852-14-14a1972 1972 0 0 0-7.277-7.996C120 518 120 518 120 517"/><path fill="#d57b5c" d="M1324 291c4.968 3.877 8.921 8.206 13 13l4.063 4.375L1344 312l-2 2-4-3c-4 1-4 1-6 2l-2-2 2-3-4 1h-3l-1-3h4l-1-5h-3l3-5-3-1z"/><path fill="#c96b4b" d="M83 291c1.332 3.997 2.345 7.833 3 12l-4 1-3 4h-5v4h-2v2h-2l1-5h-3c2.34-4.679 5.276-7.338 9-11a440 440 0 0 0 6-7"/><path fill="#d78466" d="M845 104v3l-1 1c0 5 0 5 2 9l-3 1-.437 3-.563 3c-4 1-4 1-9 0l-.375 2.813L832 130c-3.562 1.375-3.562 1.375-7 2 2.443-4.886 5.626-9.073 8.875-13.437l1.895-2.565c3.006-4.058 6.034-8.087 9.23-11.998"/><path fill="#c45733" d="M374 669c3.25 2.063 3.25 2.063 6 5l1 5 4 1c2.272 4.544 2.22 8.118 1 13l-3 2c1-4 1-4 2-6-5 1-5 1-7 2l.188-3.875c-.222-6.064-1.814-9.14-5.188-14.125l-4-2z"/><path fill="#d67a58" d="M857 88c1 2 1 2 2 6h5c.125 3.875.125 3.875-1 8-6.035 2.414-5.721 2.256-12 1l-2-1v2h-3c1.91-3.819 4.028-6.95 6.563-10.375l2.44-3.336z"/><path fill="#d48062" d="M1200 291c2.938.75 2.938.75 6 2l1 4h2v2l3.813.375C1217 300 1217 300 1220 304v2h6l-1 3-4-1v4h2l1 5c-4.9-4.073-9.358-8.327-13.687-13l-3.325-3.562A74 74 0 0 1 1200 291"/><path fill="#d47856" d="m923 0 5 2-1 3c-1 5-1 5 0 8-2.312 4.25-2.312 4.25-5 8-2-1-2-1-4-6l2-1v-3l1-2h-2v2h-2v4l-5 1c1.87-3.742 3.902-6.964 6.313-10.375l2.3-3.336z"/><path fill="#d57c5e" d="M194 465c4.179 4.139 8.262 8.36 12.313 12.625l3.8 3.977C213 485 213 485 213 488l-4-3c-4.34.248-8.387.863-12.625 1.813L194 487l1-4 2-1c1.813-4.062 1.813-4.062 3-8h-3c-1.125-2.812-1.125-2.812-2-6z"/><path fill="#c45733" d="M1147 105c2.05 1.605 4.046 3.28 6 5l3 1 1 4 2 1c2 3 2 3 2 6-3.375 1.25-3.375 1.25-7 2l-2-1q-.508-4-1-8l-2-2-4 2-1-3h-2v-6h2v2h2z"/><path fill="#d88364" d="m592 444 1 3-3 4c-.52 3.059-.52 3.059-.812 6.438-.636 4.82-.918 6.247-4.188 10.062l-3 1.5-2-3-1 2h-4c2.37-4.74 5.391-8.857 8.5-13.125l1.8-2.496c4.43-6.109 4.43-6.109 6.7-8.379"/><path fill="#ca6d4e" d="m289 701 5 2 3-1 5 2 3.25-.625L308 703l1 4-4 2c-1.5 3-1.5 3-2 6l4 2-1 4a6856 6856 0 0 1-6.465-7.18q-2.453-2.73-4.914-5.453C289 702.113 289 702.113 289 701"/><path fill="#d8886a" d="m561 635 3 1c-1.12 4.483-2.704 6.47-5.562 10.063-4.626 5.883-9.065 11.863-13.438 17.937l-1-4h-2v-4c3-2 3-2 7-2q.55-2.992 1-6l3 1-1-4 3-1v-2l5-1a90 90 0 0 0 1-6"/><path fill="#d57f61" d="M158 425c5.188 3.766 9.255 8.372 13.375 13.25l3.148 3.703C177 445 177 445 178 447h-4l-1 4-3 1c-.09-2.999-.078-6.001 0-9l-1-4h-2v-2c-4-1-4-1-6 0l-3-1a772 772 0 0 1 2-7h-3z"/><path fill="#cf8369" d="m1086 170 2.25 1.938C1091 174 1091 174 1095 175v2h2v2l4 2v2h3v2l4-1c.125 3.375.125 3.375 0 7l2 1 1 3h2v2h2l1 5c-6.875-5.625-6.875-5.625-8-9h-2a321 321 0 0 1-4.648-5.363c-4.026-4.514-8.419-8.666-12.754-12.88C1086 172 1086 172 1086 170"/><path fill="#d98668" d="M722 416c3.188.125 3.188.125 6 1-4.354 8.708-10.918 16.428-17 24h-1l-1-5-1-3 2-1 3 3-1-3 2-3h4c.375-3.5.375-3.5 0-7h-2v-2l5-2z"/><path fill="#d88b70" d="M1242 336a210 210 0 0 1 8 5v2h2v2h2l1-3 4 4 3 1-.5 2.875-.5 3.125 3 3v3l4 1 1 5c-5.022-4.06-9.267-8.431-13.512-13.262-3.634-3.999-7.512-7.735-11.398-11.488C1242 338 1242 338 1242 336"/><path fill="#d78365" d="M768 357h5c-1.83 3.66-3.78 6.508-6.25 9.75l-2.422 3.188L762 373l-3.5 4.75L756 381h-1v-6h2l1-5h-2v-2h2v-2c3-2 3-2 6-2l1.875-3.5z"/><path fill="#cc7b61" d="m161 336 4 2c-3.822 5.395-8.832 9.86-13.531 14.496-2.222 2.253-4.323 4.623-6.406 7.004C142 363 142 363 139 365c0-5 0-5 1-9l5-2 2-3h4l1-5 3-3h2l1-5 3 1z"/><path fill="#d88e72" d="m971 87 4 1c-2.256 4.512-5.031 8.075-8.125 12.063-4.006 5.164-7.88 10.35-11.562 15.75L952 120c-2-4-2-4-2-6h2l3-5 2-3h2c1.058-2.644 2.1-5.298 3-8l2-1 2-4h4l.5-3.062z"/><path fill="#d78061" d="m654 509 5 1c-3.028 7.49-9.32 14.32-15 20v-5l-2-1 1-2h3v-3h-2v-3h4l2-4h3z"/><path fill="#cd8166" d="M1075 748c0 3 0 3-2.738 5.996-1.18 1.136-2.36 2.271-3.574 3.442-3.552 3.433-6.72 6.605-9.688 10.562-6 0-6 0-9.937-3.875L1046 760l1-2c4 2 4 2 5 4 2 1 2 1 6 2l1-4h4v-3h2v-4h4v-3c3-1.375 3-1.375 6-2"/><path fill="#d78a6d" d="m1365 426 5 1c-3.73 6.103-8.802 11.195-13.66 16.418C1354 446 1354 446 1351 449.938l-2 2.062-2-4h2l1-3-2-1 2-1 3 1c-.312-3.437-.312-3.437-1-7l4 2 2-4h2v-2h2l1-4h2z"/><path fill="#c55532" d="M1094 140h4v2h2l1 2 2 1 1 5h-2l-1 3-3-1v-3c-4 1-4 1-6 2l-1 2h-2c.25-5.5.25-5.5 1-11h2v2h2z"/><path fill="#d57b5a" d="M934 135h2c1 5 1 5-.809 8.367l-2.629 3.508-2.558 3.555C927 153 927 153 922.652 153.133L919 152c0-4 0-4 3.438-7.562 1.175-.805 2.35-1.61 3.562-2.438l1 5h2l-1-4 4-2v-3h2z"/><path fill="#ce8065" d="M356 0h6c6.1 6.2 6.1 6.2 8 10l-4 1V9l-3.062-.312L360 8l1-5h-4v2l-3 2-1.312 3c-1.688 3-1.688 3-4.625 4.188L345 15l-4 3c2.18-4.359 4.578-6.744 8.063-10.125 5.84-5.68 5.84-5.68 6.937-7.875"/><path fill="#cc7d62" d="m290 199 4 1c-2.36 4.722-5.285 7.444-9.062 11.125-6.84 6.68-6.84 6.68-7.938 8.875h-2l-2 4-2 1c.251-2.344.586-4.68 1-7h2v-2h3v-4l4-1 2-5 4-4 3 1-1-3z"/><path fill="#d88c6f" d="M539 515c2 4 2 4 3 8l-2.937.375L536 524v6l-5 3-4 4h-2v4h-4c2.248-4.496 4.966-8.337 7.875-12.437l3.18-4.497L535 520l2.258-3.285z"/><path fill="#d6886c" d="M586 601h3c-1.207 6.036-4.16 9.669-7.812 14.438-6.915 9.15-6.915 9.15-9.575 13.16L570 631h-1c-.241-6.517-.241-6.517 1-9h3v-3h2l2-5h2l1-5h2v-3l5-1z"/><path fill="#d88d71" d="M511 553c0 3 0 3-1.75 6.625L508 563l4 1-4 2v-2l-2 2v2l-5 1v3h-2v2l2 1-2 4c-3.625.75-3.625.75-7 1 4.886-9.772 12.226-18.459 19-27"/><path fill="#cb785d" d="m1345 449 3 1c-1.37 5.48-4.914 8.444-8.75 12.375-7.868 8.15-7.868 8.15-11.203 12.29L1326 477l-1-2-2-1 3-1v-2h3l1-5 3-1 1-4h3v-4c2.62-2.478 4.57-3.857 8-5z"/><path fill="#ce8065" d="m210 615 5 2v2h2v2h2v2h2l1 4 4 1c3.813 1.125 3.813 1.125 7 3-.25 3.625-.25 3.625-1 7l3 1-2 2c-2.355-1.93-2.355-1.93-5.187-4.875l-2.989-3.098A309 309 0 0 1 215 622l-2.937-3.437C210 616 210 616 210 615"/><path fill="#c86d4f" d="m1075 620 3 1v5l-4 2a253 253 0 0 0-2 6l-4 4h-2v-2l-3-1c2.352-3.92 4.518-6.985 7.5-10.375l2.344-2.71c.711-.633 1.423-1.264 2.156-1.915"/><path fill="#cd856c" d="M1056 139c5.104 2.041 5.892 2.889 9 7l4 3v2h2v2h2v2h2v2h2l1 3h6l-2 3v2h6l-1 4-3 1c-1.646-1.783-3.276-3.586-4.816-5.46-3.428-3.987-7.246-7.569-11.024-11.22C1066 151 1066 151 1066 149l-3-1c-7-7.593-7-7.593-7-9"/><path fill="#d8886c" d="m611 569 3 1c-2.494 4.989-5.754 9.284-9.062 13.75l-1.971 2.691A411 411 0 0 1 598 593h-1v-5h2l-.687-2.812L598 582c5-3 5-3 7-3l.313-3.5.687-3.5h5z"/><path fill="#c75836" d="M320 624v2l4 1-3 3v5l-1 1h-6v-2h-2c-1-5-1-5-1-8 3.029-1.066 5.767-2 9-2"/><path fill="#c97256" d="M393 36c6.99 5.437 12.528 12.083 18 19v1h-5v-2h-3v-2h-3l-2 4 .176-2.773.137-3.602.175-3.586c-.16-1.003-.322-2.006-.488-3.039l-5-2z"/><path fill="#d88c6f" d="M687 316c1 2 1 2 1 7-2.495 4.158-4.419 6.866-8 10h-3v2h-2v3l-5 2c2.488-4.976 5.752-9.242 9.063-13.687l1.97-2.667c4.804-6.483 4.804-6.483 5.967-7.646"/><path fill="#c45632" d="M993 66c3 1 3 1 7 4q3.006-.98 6-2l3 3c-.24 3.852-.84 5.76-3 9h-2l1-4-3 1-3-3-5-1c-1-3.625-1-3.625-1-7m2 4 1 2h2v-2z"/><path fill="#da9378" d="M459 623c1.606 3.211.862 5.614 0 9l-5 1a180 180 0 0 0-1 6h-4l1 4-2 2h-3l-1 4-2 2h-3c2.443-4.886 5.626-9.073 8.875-13.437l1.895-2.565c1.733-2.34 3.481-4.67 5.23-6.998l2.383-3.223z"/><path fill="#d68568" d="m77 459 2 1-1 4h2a567 567 0 0 1 3 9l3 5-1 2c-2.04-1.982-3.98-4.067-5.875-6.187l-3.242-3.606L73 467l-3-3v-2h-2l1-2 3.5 1.063L76 462z"/><path fill="#d88a6d" d="m890 44 1 3 3 1-3 1-1 3-4 1v2l3 2-5 2-1 3h-3l-1 2h-2v3h-3c1.706-4.264 2.918-6.416 5.75-9.812 3.54-4.31 6.93-8.705 10.25-13.188"/><path fill="#da957b" d="M615 413c1 2 1 2 .25 5.625L614 422h-3l-1 5q-2.494 2.007-5 4l-2.437 4.063c-2.63 4.041-4.134 5.29-8.563 6.937 2.547-5.095 5.948-9.416 9.375-13.937l2.04-2.71c1.853-2.457 3.718-4.905 5.585-7.353l2.414-3.254z"/><path fill="#d2846a" d="m1143 231 5 1v3h6c2 2 2 2 2 5l3-1a180 180 0 0 1-1 6h2v2h2v2h2l1 5c-8.311-6.65-15.447-14.635-22-23"/><path fill="#d78365" d="M789 179c3 4 3 4 3 9l-5 2-2.062 3.188L783 196l-4-1v3h-3c2.155-4.311 4.667-8.056 7.438-12l2.933-4.25z"/><path fill="#d78a6f" d="m869 224 3 1c-2.599 5.198-6.077 9.628-9.562 14.25l-2.116 2.836A463 463 0 0 1 855 249h-1c-.525-4.459-.513-6.349 2.313-9.937C859 237 859 237 862 237l-1-3h2v-3h2v-2h2l1-4z"/><path fill="#cb785c" d="m1145 666 4 1c-1.33 5.322-4.075 7.201-8 11l-3.75 4.313C1134 686 1134 686 1131 688l-1-4 5-1-1-5 3 1-1-4 2-1 3 1v-3h2l1-5z"/><path fill="#c45632" d="M1042 64h4v3l3-1c-.062 3-.062 3-1 6l-4-1-2 5c-5-2-5-2-7-4h-2l-1-4h3c3.125-.875 3.125-.875 6-2z"/><path fill="#d98a6c" d="M784 333h2c1.344 2.695 1.344 2.695 2 6-1.344 2.492-1.344 2.492-3.5 4.875l-2.254 2.578L780 349l-3.437 4.625L774 357h-1c0-6 0-6 1-11h3l1-2 2-3h4c.083-2.665.083-5.335 0-8"/><path fill="#d1653f" d="m1238 321 4 3v4q4.499.514 9 1l2 4-2 2h-2l-4 2v-2l-4-1c-1.125-3-1.125-3-2-6l-2-1-1 2-1-4z"/><path fill="#ce8067" d="m408 73 3 1c-1.27 5.081-3.575 7.045-7.187 10.813C399.4 89.437 395.123 94.114 391 99v-3l3-3 1-3-2-1 3-1v-2h2l1-4h3v-2h3a150 150 0 0 0 1-6h2z"/><path fill="#ce836a" d="M370 10c4.34 4.29 8.555 8.693 12.75 13.125l4.047 4.258C390 31 390 31 391 34h2l-1 2h-4l-1-5-5 2v-6l-3-3v-2l-3-1-2-2h-1a168 168 0 0 1-2-6z"/><path fill="#c75834" d="m300 650 4 2v9l4-1v2c-4.055 1.751-5.61 2.098-10 1 1-4 1-4 2-7l-4 4h-3c.063-2.937.063-2.937 1-6 4-1 4-1 7 0z"/><path fill="#c66647" d="M1097 51c12.241 10.321 12.241 10.321 15 17v3c-3-.187-3-.187-6-1v-2l-2-1h2c-2-2-2-2-4-3l-1-4-3-5z"/><path fill="#d98e72" d="M438 651c1.103 4.411.806 5.937-1 10l-3 1-1 4-2 2-2-1v4l-5 2-2 1c2.5-5.002 5.794-9.285 9.125-13.75l1.996-2.691A3965 3965 0 0 1 438 651"/><path fill="#d27f64" d="M247 525c5.325 4.154 9.629 8.872 14 14l3 3-1 2c-4-3-4-3-5-5l-3.625.063L251 539l1-3-2-4h-2l-1 3c-1-4-1-4 0-6l-2-1c1-2 1-2 2-3"/><path fill="#ca6d4d" d="m1155 648 1 2h2l1 5 3-1c-2.33 4.66-5.127 7.55-9 11l-1-3-2-1 3-2-1-3 2-1-2-2c2-4 2-4 3-5"/><path fill="#d8896c" d="M765 211c1 2 1 2 0 6h-2l1 5c-3.016 5.027-3.858 5.965-9 8h-3c2.16-4.321 4.727-7.964 7.563-11.875.99-1.38 1.982-2.759 3.003-4.18z"/><path fill="#ca7559" d="M1193 615h5c-4.364 6-8.977 11.551-14 17h-1v-6l-3-1v-1h6v-2z"/><path fill="#d4876b" d="M214 488h2c1.414 1.573 2.756 3.211 4.063 4.875a181 181 0 0 0 10.187 11.75L234 509l-3 1-2-1v-2l-4-2-3-2v-3l-3-3-1-3-2-1-1 3-3-3 2-1z"/><path fill="#ca7659" d="M1259 540c3.938-.312 3.938-.312 8 0a107.5 107.5 0 0 1-13 15l-3 3c-.937-4-.937-4-1-8 3.5-.187 3.5-.187 7 0l-1-5h4z"/><path fill="#d88667" d="m570 475 1 2-1 3 2 2h-2v2h-2a506 506 0 0 0-2 6c-2 1-2 1-6 0l-2 1c1.778-3.556 3.673-6.484 6-9.687l2.125-2.95C568 476 568 476 570 475"/><path fill="#d58365" d="M178 447c2.246 1.797 2.246 1.797 5 5l3.035 3.078 3.028 3.172 3.097 3.203L194 464l-4 1v-2l-4-.437-4-.563v-3h2v-2l-3-1v-3l-4 1-1-2z"/><path fill="#d27654" d="m123 503 1 3h2v5l-2 1v-3l-5 1c.188 3.563.188 3.563 1 7a159 159 0 0 1-6-5v-2h-2v-3q3.491-.562 7-1v-2l4 1z"/><path fill="#d78566" d="m35 424 3.313.5C42 425 42 425 45 424c1.185 3.743 2 7.064 2 11l5 1-2 4c-5.858-4.1-10.392-9.584-15-15z"/><path fill="#bd5433" d="m1007 82 1 2 4-1 2 4 4-1-1 5v4c-5.346-1.337-7.472-3.85-11-8z"/><path fill="#d99880" d="m421 674 1 2c-2.312 4.625-2.312 4.625-5 9h-2l-1 4-3 4h-2l-2 5c-5 2-5 2-7 2l1-4 3 2 2-4c2.162-3.026 4.418-5.971 6.672-8.93 1.987-2.62 3.91-5.274 5.828-7.945z"/><path fill="#da9176" d="m744 388 5 1c-1.731 3.463-3.524 6.219-5.812 9.313l-2.145 2.914L739 404a2445 2445 0 0 0-5 7l-1-3-2-1h4v-3h2l-1-4 4 1c.085-2.665.082-5.335 0-8h2z"/><path fill="#ce8267" d="M270 680c3.438 1.313 3.438 1.313 7 3l1 3h3v4l5-2-1 5 2 3-1 3c-6.103-5.493-12.311-11.623-16-19"/><path fill="#d78a6e" d="m1389 401 4 1c-1.586 2.258-1.586 2.258-4.375 5.125l-2.863 2.996L1383 413l-3.562 4.188L1377 420h-1v-5l3-1-1-4h2l2-2 2 1v-4h2v-2h3z"/><path fill="#d68668" d="M1402 377c4.875 4.5 4.875 4.5 6 9h-2l-2 4c-2.562 2.438-2.562 2.438-5 4l-1-3h3l-3-5v-2l4-3z"/><path fill="#cc7e64" d="m187 309 4 1c-2.062 2.813-2.062 2.813-6 7l-2.828 3.203c-5.854 6.59-5.854 6.59-8.172 8.797l-1-2-3-1 4-1v-3l5-1v-4h3v-4h3v-2h2z"/><path fill="#cd7d62" d="m1317 479 2 3 3-2c-2.26 4.52-4.897 7.094-8.5 10.625l-3.531 3.477L1307 497l-2 2-1-4h3v-4h2l1-4h2l1-3 2-2z"/><path fill="#d88a6e" d="M670 485c3 2 3 2 4 6-2.422 3.785-2.422 3.785-5.75 8.063l-3.297 4.285C662 507 662 507 659 510a101 101 0 0 1-1-7h2l3-3h2v-3h2l-1-4h5c-.187-4-.187-4-1-8"/><path fill="#d0886e" d="M153 216c0 3.751-1.085 5.808-3 9h-3v6c-3 1.25-3 1.25-6 2v2l-5 2-3 2c2.329-4.658 5.148-7.307 8.875-10.937 3.964-3.87 7.783-7.638 11.125-12.063"/><path fill="#d89074" d="M873 67c1 3 1 3 1 8h-5a172 172 0 0 0-2 7l-4 1v4l-5 1c2.253-4.507 5.023-8.17 8.063-12.187l3.285-4.356C872 68 872 68 873 67"/><path fill="#d1856b" d="m1210 474 3 1-2 1v2h-3v2a714 714 0 0 1-8 4l-3 3-3 2-2 4c-3.125 2.25-3.125 2.25-6 4 2-4 2-4 4-7h2l2-4a93 93 0 0 1 4.375-4.812l2.336-2.458L1203 477l4 1v-2h3z"/><path fill="#d98c6e" d="M1269 365c3.5 1.75 3.5 1.75 7 4v2c2.625-.094 2.625-.094 6-.5s3.375-.406 6-.5v2l-5 1c.375 3.063.375 3.063 1 6-3 0-3 0-5.918-2.555l-3.27-3.32-3.292-3.305C1269 367 1269 367 1269 365"/><path fill="#d88b70" d="M1183 273h2l2.25 2.938c2.75 3.062 2.75 3.062 5.813 4C1196 280 1196 280 1200 279c.356 3.701.178 6.466-1 10l2 1c-3 0-3 0-6.32-2.957l-3.805-3.856-3.82-3.832C1184 276 1184 276 1183 273"/><path fill="#c25733" d="m307 711 3 1v2h2v-2l3 1-1 3h4v4h2v2h-2v2l-2-1v-5c-3.937-.5-3.937-.5-8 0l-1 3-2-5-2-1v-2l4 1z"/><path fill="#cf866c" d="M1227 450c1 3 1 3 0 7l-5 1-.812 3.313c-1.188 3.687-1.188 3.687-5.126 6L1212 469l-3 2c2.344-4.689 5.265-7.326 9-11a955 955 0 0 0 7-8z"/><path fill="#d48368" d="M1240 201c4.35 3.517 8.345 7.255 12.188 11.313l2.48 2.613L1256 217c-4 1-4 1-5 1l-.75-2.875L1249 212l-5-2v4l-4-1c.313-2.687.313-2.687 1-6-.437-3.375-.437-3.375-1-6"/><path fill="#d9987e" d="m731 257 1 4h-2l-1 4h-2v4l-5 2c-.39 1.99-.719 3.992-1 6l-4 4h-3c2.37-4.74 5.391-8.857 8.5-13.125l1.8-2.496c4.43-6.109 4.43-6.109 6.7-8.379"/><path fill="#c45633" d="M1090 50c3.25-.5 3.25-.5 7 1 2.313 3.938 2.313 3.938 4 8l2 2-1 3h-3l-.437-3.437L1098 57l-4-1-1 2h-3c-.625-4.062-.625-4.062 0-8"/><path fill="#ca795d" d="m1052 646 1 2 3 1v3h-4l1 3-4 1c-5 3-5 3-6 5h-3c1.753-3.506 3.416-6.093 6-9h2l2-4z"/><path fill="#c75835" d="m289 624 1 2 5-1c.5 3.188.5 3.188 0 7l-3 4h-2a100 100 0 0 1-3-6l-2-4z"/><path fill="#d98c70" d="M632 539h5c-1.943 3.886-4.099 7.383-6.5 11l-2.406 3.688L626 556l-2-4 1-2 2 1v-3h2l-2-5 2-3h3z"/><path fill="#be5634" d="M1036 112h2v4l2-1 3 3-2 1v2l4.563-1.125L1050 119l-1 4 3 1c-3.937 1.063-3.937 1.063-9 1-3.649-2.454-6.705-5.229-9-9z"/><path fill="#cc8067" d="M1044 0h2v2l4 2a231 231 0 0 1 6.75 6.625l3.547 3.602L1063 17c-4 1-4 1-6 0v-2h-2v-2l-3-1V9h-2V7h-2V5h-2V3h-2z"/><path fill="#d88d71" d="m13 399 5 2 5 1 2 5 3 5 1 5-5-5-3.562-3.437C17.483 405.5 15.205 402.616 13 399"/><path fill="#d07c61" d="M1256 218c5.285 4.125 10.96 8.92 14 15-5.514 0-6.125-.544-10-4l-2-1c-1.445-3.613-2-6.067-2-10"/><path fill="#d18d74" d="M1146 540v3l-2 2-1 4h-2v2h-2l-1 5-2 2h-3v2l-5 2c2.042-4.084 4.2-6.565 7.313-9.875 3.697-3.945 7.26-7.942 10.687-12.125"/><path fill="#d1876d" d="M138 365c0 3 0 3-3.027 6.355l-3.91 3.832-3.903 3.856C124 382 124 382 123 382c-.75-2.937-.75-2.937-1-6 3-1 3-1 7-1l.25-2.75c.75-3.25.75-3.25 4.813-5.812 1.299-.475 2.598-.95 3.937-1.438"/></svg>