<svg xmlns="http://www.w3.org/2000/svg" width="1024" height="1024"><path fill="#cf6b4c" d="m468 210 3.043 2.18a191 191 0 0 1 16.648 13.695c2.128 1.958 4.31 3.857 6.497 5.75 5.053 4.474 9.723 9.077 14.062 14.25C511 249 511 249 514 250l2-4c6.484-7.54 13.337-14.654 21-21l2.672-2.402C570.483 195.345 611.054 177.986 652 174l3.246-.332C709.535 168.961 761.318 185.451 804 219c5.17 4.503 10.108 9.198 15 14l2.918 2.73C839.771 252.76 853.231 274.49 863 297l1.387 3.094C871.545 316.533 875.814 333.425 879 351l.754 4.148c2.681 18.19 5.165 45.262-.754 62.852-4.483-1.12-6.165-2.572-9.625-5.562-3.796-3.24-7.595-6.455-11.5-9.563l-2.457-1.957q-2.4-1.905-4.805-3.805a473 473 0 0 1-14.176-11.738c-3.755-3.205-7.478-6.195-11.625-8.875C821 374 821 374 819 371c-.504-3.01-.929-6.034-1.312-9.062C813.592 333.75 802.705 307.652 784 286l-2.676-3.117c-24.034-27.059-60-45.687-96.324-47.883-41.504-1.9-79.123 11.02-110.125 38.5-6.99 6.39-13.395 12.994-19.32 20.375-2.967 3.629-6.035 7.157-9.117 10.688-4.257 4.888-8.405 9.822-12.415 14.914-3.353 4.181-6.851 8.24-10.34 12.308-2.487 2.98-4.803 6.04-7.12 9.152L513 345c-4.5-2.25-5.942-4.201-8.937-8.187A297 297 0 0 0 491.5 321.5c-4.218-4.812-8.271-9.69-12.187-14.75-4.133-5.33-8.463-10.364-13.051-15.305-1.948-2.105-3.83-4.27-5.7-6.445-12.685-14.243-26.73-25.008-43.562-34l-4.937-2.687C376.43 232.036 335.739 230.478 299 244c-11.635 4.933-22.867 10.377-33 18l-2.555 1.922C253.118 271.965 243.947 280.58 236 291l-2.09 2.719c-13.047 17.43-24.574 40.42-26.316 62.41-1.198 14.208-1.198 14.208-5.508 19.344-3.576 2.77-7.233 5.163-11.086 7.527a177 177 0 0 0-5.375 4.375c-10.882 8.949-21.809 17.83-32.93 26.48C150 416 150 416 148 418h-3c-12.837-44.347 4.171-101.047 25-140 3.103-5.189 6.431-10.123 10-15l2.188-3.066c1.913-2.664 3.858-5.3 5.812-7.934l3.375-4.687L194 244h2l2-4c67.851-75.21 187.562-89.468 270-30"/><path fill="#d06b4c" d="M487 652c5.798 2.903 10.68 6.733 15.75 10.75 5.798 4.567 11.636 9.042 17.633 13.344 4.104 2.989 8.102 6.112 12.117 9.218a998 998 0 0 0 11.188 8.438c7.346 5.494 14.583 11.118 21.812 16.766 5.759 4.458 11.59 8.816 17.438 13.156C586 726 586 726 588 728c2.927.195 5.863.253 8.796.255l5.661.021c1.003 0 2.006 0 3.039-.002q4.688.001 9.374.03 13.328.068 26.657.077 8.144.01 16.288.065 3.117.015 6.234.007c2.891-.007 5.782.012 8.673.033l5.001.008L681 729c-2.274 4.548-5.04 7.529-8.5 11.25l-3.531 3.828C666 747 666 747 664 747l-2 4a302 302 0 0 1-8.035 8.195l-2.406 2.39a3591 3591 0 0 1-7.621 7.54q-3.82 3.777-7.633 7.561-2.373 2.355-4.754 4.701c-5.44 5.39-5.44 5.39-6.551 7.613h-2l-2 4a142 142 0 0 1-5.165 5.376l-3.268 3.258-3.547 3.507-3.64 3.624q-5.78 5.748-11.567 11.485-5.76 5.717-11.514 11.442a4226 4226 0 0 1-7.172 7.119c-5.6 5.566-10.978 11.197-16.127 17.189-4.594 4.822-9.3 9.53-14 14.25l-3.773 3.836-3.664 3.68-3.31 3.337c-7.516 6.693-14.772 9.048-24.816 8.71C498.99 888.25 493.439 884.31 486 877l-3.95-3.867c-10.92-10.81-10.92-10.81-15.022-15.612-5.138-5.898-10.75-11.326-16.305-16.826l-7.178-7.14q-5.64-5.603-11.285-11.2-5.462-5.418-10.912-10.847l-3.447-3.406-3.147-3.137-2.789-2.766C410 800 410 800 410 798h-2v-2h-2v-2h-2a396 396 0 0 1-4.655-5.357c-5.074-5.717-10.61-11.009-16.033-16.393l-3.705-3.691q-3.39-3.38-6.785-6.753A3417 3417 0 0 1 366 755v-2l-4-2c-5.665-5.418-10.88-11.06-16-17l-3-3v-2c2.952-.199 5.914-.245 8.873-.243l5.865-.01 6.41.023h6.51q6.838.003 13.675.024c5.854.017 11.707.021 17.561.02q6.727.001 13.455.013 3.237.005 6.476.006c3.014.002 6.029.012 9.044.022l5.208.011C440 729 440 729 442 730v2h2l7 8a236 236 0 0 0 4.938 4.375L460 748v2h2a687 687 0 0 1 7 8l2 1c.187-2.827.213-5.663.195-8.496l-.02-5.695-.025-3.083c-.025-3.17-.038-6.338-.048-9.507-.027-7.88-.075-15.761-.123-23.642q-.06-9.959-.09-19.917c-.014-3.119-.039-6.238-.064-9.357l-.02-5.772-.032-5.076c.284-5.57.588-9.898 4.727-13.83 4.135-2.688 6.503-3.035 11.5-2.625"/><path fill="#d06c4d" d="M369.125 322.625c7.106 5.87 11.93 11.256 13.875 20.375.78 10.58-1.052 19.59-8 28-2.252 1.882-4.515 3.752-6.84 5.543-3.871 3.01-7.636 6.138-11.41 9.27-5.26 4.343-10.552 8.626-15.937 12.812-6.04 4.707-11.843 9.65-17.633 14.66-3.957 3.378-8.055 6.546-12.18 9.715-3.685 2.978-7.342 5.99-11 9a6268 6268 0 0 1-23.156 18.875q-4.68 3.803-9.344 7.625a4070 4070 0 0 1-13.5 11 4693 4693 0 0 0-23.207 18.953l-4.543 3.735-4.234 3.48c-1.326 1.1-2.65 2.2-4.016 3.332l-4.113 3.273L211 505c1.563 2.438 1.563 2.438 5 5l4.188 3.75C224 517 224 517 226 518v2l4 2a249 249 0 0 1 6.375 5.438c4.862 4.224 9.783 8.305 14.875 12.25a227 227 0 0 1 14.336 12.14c3.398 3.057 6.945 5.914 10.496 8.79 3.172 2.59 6.297 5.23 9.418 7.882 3.97 3.371 7.96 6.712 12 10 5.163 4.202 10.238 8.504 15.313 12.813a651 651 0 0 0 8.687 7.187c5.163 4.202 10.238 8.504 15.313 12.813a651 651 0 0 0 8.687 7.187 815 815 0 0 1 15.148 12.676 277 277 0 0 0 6.891 5.617c8.238 6.592 12.854 11.778 15.461 22.207.506 9.36-.474 16.632-6.187 24.25-7.666 7.54-13.402 11.292-24.188 12.063-13.65-.923-21.34-7.8-31.187-16.438C318 676 318 676 314.563 673.75L312 672v-2l-4-2a253 253 0 0 1-6.562-5.562c-4.291-3.724-8.59-7.42-13-11A705 705 0 0 1 276.5 641.5a912 912 0 0 0-14.684-12.184c-3.154-2.594-6.267-5.233-9.378-7.879-3.75-3.184-7.516-6.325-11.375-9.375-5.334-4.225-10.464-8.676-15.618-13.117-3.841-3.284-7.745-6.482-11.668-9.668-3.121-2.559-6.2-5.164-9.277-7.777a918 918 0 0 0-14.707-12.203 693 693 0 0 1-8.98-7.547c-8.495-7.212-17.16-14.216-25.852-21.187A540 540 0 0 1 147 534l-3.2-2.645c-7.52-6.487-12.134-11.666-13.16-21.964-.329-9.116 1.308-15.288 5.36-23.391h2v-2c1.487-1.354 3.044-2.631 4.625-3.875 4.503-3.597 8.9-7.283 13.25-11.062 5.472-4.715 11.092-9.144 16.848-13.504 4.727-3.691 9.222-7.636 13.754-11.563 4.501-3.828 9.148-7.447 13.812-11.074 7.005-5.516 13.842-11.239 20.711-16.922 3.662-3.005 7.331-6.002 11-9l2.55-2.09c9.524-7.802 19.087-15.556 28.645-23.316A6852 6852 0 0 0 286 363l2.52-2.059a4683 4683 0 0 0 17.043-14.003c11.338-9.338 11.338-9.338 15.988-13a347 347 0 0 0 5.554-4.5c13.35-10.768 25.761-15.267 42.02-6.813"/><path fill="#d06b4c" d="M689.25 323.438c5.232 3.924 10.14 8.12 15.07 12.414 4.634 3.965 9.431 7.692 14.246 11.433 3.377 2.67 6.662 5.42 9.934 8.215 5.603 4.785 11.351 9.351 17.16 13.883 7.045 5.52 13.909 11.243 20.715 17.055A309 309 0 0 0 779.5 397c5.617 4.27 11.008 8.754 16.371 13.336 6.971 5.936 14.113 11.662 21.27 17.371a2559 2559 0 0 1 34.101 27.816l4.57 3.79 4.27 3.55C864 466 864 466 867.512 468.293L870 470v2l4 2a207 207 0 0 1 6.5 5.25l3.406 2.828c5.734 5.416 8.722 10.785 9.43 18.656.103 10.64-.747 18.848-8.399 26.829-4.165 3.88-8.54 7.492-12.98 11.05-3.22 2.599-6.37 5.267-9.52 7.95a528 528 0 0 1-13.847 11.347c-4.187 3.379-8.269 6.882-12.367 10.367a613 613 0 0 1-8.723 7.223 752 752 0 0 0-12 10 912 912 0 0 1-14.684 12.184c-3.154 2.594-6.267 5.233-9.379 7.879a528 528 0 0 1-13.847 11.347c-4.187 3.379-8.269 6.882-12.367 10.367a613 613 0 0 1-8.723 7.223c-5.164 4.204-10.24 8.506-15.316 12.816a609 609 0 0 1-8.621 7.121c-4.19 3.407-8.291 6.904-12.375 10.438-5.861 5.051-11.88 9.846-17.997 14.582-2.802 2.233-5.441 4.545-8.066 6.98-8.145 7.035-15.489 8.983-26.125 8.563-9.953-1.592-15.309-5.565-22-13-4.893-8.499-5.73-15.819-4.375-25.437C645.051 645.194 653.12 639.168 662 632q3.163-2.68 6.313-5.375c7.47-6.323 15.079-12.47 22.687-18.625 7.305-5.911 14.472-11.963 21.594-18.094 3.805-3.247 7.674-6.406 11.558-9.558 3.345-2.757 6.627-5.58 9.91-8.41a443 443 0 0 1 14.383-11.883c4.18-3.362 8.246-6.858 12.332-10.332a613 613 0 0 1 8.723-7.223 716 716 0 0 0 11.625-9.687c20.549-17.431 20.549-17.431 28.387-23.043L813 507v-3c-2.605-2.312-2.605-2.312-6.187-5-4.936-3.77-9.776-7.593-14.5-11.625-5.71-4.87-11.489-9.643-17.313-14.375l-3.75-3.062c-6.538-5.332-13.099-10.623-19.75-15.813-4.981-3.893-9.742-7.962-14.5-12.125a934 934 0 0 0-6.437-5.062c-8.319-6.49-16.435-13.213-24.563-19.938a4218 4218 0 0 0-19-15.5l-8-6.5-3.012-2.445a1005 1005 0 0 1-17.968-14.993 381 381 0 0 0-7.52-6.187c-6.681-6.443-9.267-12.95-9.75-22.125.484-10.156 3.858-17.022 11.125-23.937 11.725-9.416 24.385-9.326 37.375-1.875"/><path fill="#d06d50" d="m416.457 477.741 2.937-.01c3.211-.01 6.422-.003 9.633.003l6.685-.005q7.01-.005 14.02.01c5.993.012 11.986.005 17.98-.007q6.903-.009 13.807 0 3.315.003 6.63-.005c3.088-.005 6.177.003 9.265.014l5.329.005C507 478 507 478 511 480c2.427 4.854 2.267 8.093 2.25 13.5l.016 5.094C513 503 513 503 511 507c-4.89 2.445-8.087 2.267-13.554 2.29l-2.934.02c-3.2.02-6.401.024-9.602.026l-6.673.02q-6.994.017-13.989.015c-5.976 0-11.953.027-17.93.061-4.593.022-9.187.026-13.781.025q-3.306.005-6.611.027c-3.081.02-6.161.014-9.242.002l-5.313.008c-4.6-.52-6.374-1.017-9.371-4.494-.813-4.59-.813-4.59-1-9.937l-.25-5.34C401 485 401 485 404 480c4.221-2.814 7.392-2.254 12.457-2.259"/><path fill="#d06a4c" d="m524.71 549.694 3.056-.026c3.346-.024 6.692-.032 10.039-.04l6.957-.026q7.302-.024 14.603-.028c6.244-.005 12.487-.043 18.73-.088 4.792-.03 9.584-.037 14.376-.038q3.454-.006 6.907-.038c3.218-.027 6.435-.022 9.653-.01l5.553-.015c4.416.615 4.416.615 7.004 2.86 2.174 4.241 1.978 8.028 1.974 12.755l.067 5.313C623 575 623 575 621.077 577.755c-4.375 3.192-7.56 2.866-12.944 2.86l-2.998.017c-3.265.012-6.53-.012-9.795-.038q-3.405-.003-6.81 0-7.133-.004-14.267-.052c-6.099-.04-12.197-.044-18.296-.037-4.687.004-9.373-.009-14.06-.026q-3.374-.01-6.747-.009c-3.14-.002-6.281-.023-9.422-.05l-5.418-.026C516 580 516 580 512 577c-1.294-3.882-1.17-7.283-1.188-11.375l-.042-4.523c.606-10.785 4.311-11.352 13.94-11.408"/><path fill="#d07457" d="M358 630c10.584 5.292 19.909 13.828 24 25 2.111 8.444 1.195 15.962-2 24-3.832 4.988-7.95 9.241-13 13h-2v-3h2l-1-4 4-4v-6l4 2v2h2l2-4-2-1 2-1v-3l-4 2-1 3-2-5-1-2h-2c-.25-4.875-.25-4.875 0-10l2-2v-4h2v-2h-3c1-3 1-3 2-5h-5v-2l-2-1v-2c-2-4-2-4-5-6z"/><path fill="#d0836b" d="m411.13 477.626 5.327.002 2.937-.011c3.211-.009 6.422.005 9.633.02l6.685-.002q7.01 0 14.02.029c5.993.022 11.986.023 17.98.016q6.904-.002 13.807.013 3.315.006 6.63.004 4.633.002 9.265.028l5.329.014C507 478 507 478 511 480c2.428 4.856 2.3 8.152 2.313 13.562l.05 5.13C513 503 513 503 510 506c-4-8-4-8-3-13l4-2-4-4v-6c-3.15-.677-3.15-.677-7.625-.573l-5.051.071-5.539.17-5.662.1c-5 .093-9.999.21-14.998.342-6.98.177-13.96.308-20.94.443a2032 2032 0 0 0-11.147.254c-10.74.246-21.326.016-32.038-.807 3-3 3-3 7.13-3.374"/><path fill="#ce846c" d="M515 550c3.193-.217 6.396-.288 9.597-.306l3.055-.026c3.352-.024 6.703-.033 10.055-.04l6.962-.026q7.31-.024 14.62-.028c6.252-.005 12.503-.043 18.755-.088 4.796-.03 9.592-.037 14.389-.038q3.457-.006 6.914-.038a799 799 0 0 1 9.668-.01l5.562-.015c4.423.615 4.423.615 7.012 2.86 2.172 4.241 1.977 8.029 1.973 12.755l.067 5.313C623 575 623 575 621.08 577.756c-4.394 3.2-7.608 2.859-13.012 2.843l-3.017.012a875 875 0 0 1-9.853-.052q-3.42-.007-6.839-.007-7.158-.011-14.316-.065c-6.135-.045-12.27-.06-18.406-.064-4.703-.004-9.407-.02-14.11-.039q-3.396-.012-6.79-.02-4.728-.015-9.454-.058c-1.797-.01-3.594-.02-5.445-.032L516 580v-2c3.146-.213 6.302-.275 9.455-.287l3.044-.02q3.288-.02 6.576-.029 5.193-.014 10.384-.052c8.598-.057 17.196-.092 25.794-.128q10.887-.045 21.772-.12c3.424-.02 6.847-.028 10.271-.036l6.249-.04 5.545-.023L619 577v-2h2c-.132-3.299-.41-6.591-.75-9.875l-.547-5.555C619 555 619 555 617 553c-5.059-1.012-9.426-1.106-14.58-1.082l-5.954.02-3.174.017q-4.916.026-9.83.036-13.971.037-27.942.105-8.548.04-17.096.055-3.267.009-6.533.03c-3.03.019-6.059.025-9.088.03l-5.236.023L514 552z"/><path fill="#dba18d" d="M582 724c4 2 4 2 6 4 2.927.195 5.863.253 8.796.255l5.661.021c1.003 0 2.006 0 3.039-.002q4.688.001 9.374.03 13.328.068 26.657.077 8.144.01 16.288.065 3.117.015 6.234.007c2.891-.007 5.782.012 8.673.033l5.001.008L681 729c-2.274 4.548-5.04 7.529-8.5 11.25l-3.531 3.828C666 747 666 747 664 747l-2 4a188 188 0 0 1-6.062 6.25l-3.286 3.266C650 763 650 763 649 763c-.687-3.5-.687-3.5-1-7h2v-4h2v3l3-1 1-4h2l1-2h2l1-4 4 1-1-4h3v-2h-2v-5l4 1v-2l3-1-3.207.027q-14.942.12-29.885.18c-5.122.021-10.244.05-15.366.095-5.885.051-11.77.07-17.655.089l-5.588.062-5.156.001-4.555.027L588 732l-3-4-3-1z"/><path fill="#d79e8b" d="m661.668 232.832 3.485-.01q3.645-.007 7.29-.007c3.74-.002 7.48-.02 11.22-.04q3.533-.005 7.067-.005l3.419-.022c2.618.008 5.236.118 7.851.252v2c3.797.712 7.593 1.058 11.437 1.438L717 237v2q4.998 1.011 10 2c3.562 1.438 3.562 1.438 6 3l1 3-3.777-1.277C687.918 231.769 647.05 231.169 606 251l-4.426 2.813L598 256l-2-1 1-3 3.062-.5L603 251v-3a150 150 0 0 1 6-1v-2h2v-2h9v-2h4v-2c6.15-2.614 12.38-3.02 19-2.937l4-.063v-2c4.76-1.587 9.694-1.163 14.668-1.168"/><path fill="#dba28e" d="M343 729c2.952-.199 5.914-.245 8.873-.243l5.865-.01 6.41.023h6.51q6.838.003 13.675.024c5.854.017 11.707.021 17.561.02q6.727.001 13.455.013 3.237.005 6.476.006c3.014.002 6.029.012 9.044.022l5.208.011C440 729 440 729 442 730v2h2c2.75 3.438 2.75 3.438 5 7l-2 1v-2l-3.5.313L440 738l.252-3.468L440 731c-3.113-.855-3.113-.855-7.527-.826l-4.975-.018-5.435.09-5.516.016q-5.79.025-11.581.1c-5.94.075-11.878.102-17.818.12q-5.606.034-11.21.077l-5.436.035-4.975.068-4.414.05L358 731v2l-5 1 1 5c-3 0-3 0-7.187-3.875C343 731 343 731 343 729"/><path fill="#d06c4c" d="m470 860 8 4v3c2.346-.62 4.679-1.292 7-2l3 1 1-3 1 3h4v-2h2c-1 5-1 5-3 10h2v2l-2 1 1 5 5 1 3 3c3.777.379 7.404.604 11.188.688l3.138.103c2.558.083 5.116.147 7.674.209-5.148 3.432-11.123 3.369-17.11 2.602-11.826-2.552-19.14-10.55-27.39-18.914l-2.781-2.784C470 861.141 470 861.141 470 860"/><path fill="#d69a85" d="M408 181v1a240 240 0 0 1-9.062-.312c-1.683-.08-3.365-.158-5.098-.239-4.247-.394-7.854-.951-11.84-2.449v-2a197 197 0 0 0-11.355-.23h-3.54q-3.731.006-7.462.024a2333 2333 0 0 1-11.305.02q-3.628.007-7.256.018l-3.376.003c-10.106.06-19.96.298-29.706 3.165-2.666.075-5.335.094-8 0 29.922-14.96 76.866-8.188 108 1"/><path fill="#d17c60" d="M647 646c1 2 1 2 0 7h-2v2h3v3c2-2 2-2 3-4h2v5l-4 3 2 3-1 4 2 3c-.34 3.996-1.178 6.355-3 10l4 4h-3c-5.93-6.226-8.755-12.099-9.187-20.75.322-7.313 1.388-13.522 6.187-19.25"/><path fill="#d1907b" d="M515 550c3.193-.217 6.396-.288 9.597-.306l3.055-.026c3.352-.024 6.703-.033 10.055-.04l6.962-.026q7.31-.024 14.62-.028c6.252-.005 12.503-.043 18.755-.088 4.796-.03 9.592-.037 14.389-.038q3.457-.006 6.914-.038a799 799 0 0 1 9.668-.01l5.562-.015c4.423.615 4.423.615 7.016 2.857 2.174 4.262 1.897 8.08 1.845 12.82l-.004 5.348C623 575 623 575 620 579l-2-1 1-3h2c-.132-3.299-.41-6.591-.75-9.875l-.547-5.555C619 555 619 555 617 553c-5.059-1.012-9.426-1.106-14.58-1.082l-5.954.02-3.174.017q-4.916.026-9.83.036-13.971.037-27.942.105-8.548.04-17.096.055-3.267.009-6.533.03c-3.03.019-6.059.025-9.088.03l-5.236.023L514 552z"/><path fill="#d4866e" d="M364 321c6.404.915 9.882 5.35 14 10 3.474 6.058 5.144 11.043 5.188 18l.042 3.125C383 355 383 355 381 359l-.148-4.121-.227-5.317-.21-5.308c-.138-1.404-.274-2.808-.415-4.254l-2-1-1-3h-6l-1 4-3-1q.43-3.51 1-7h-2v-2h-2c1-4 1-4 3-7h-5z"/><path fill="#d18167" d="M793 294h2v3h2v2l4 1 1-2v2h2v2l4 2c2 4 2 4 2 8h-3c-.312 3.5-.312 3.5 0 7h2v3h2l-1 5 2 1-2 3-1.652-4.102c-4.193-10.134-8.44-19.363-14.793-28.378L792 296z"/><path fill="#d38168" d="m698 602 2 1-2 2c-1.312 3.563-1.312 3.563-2 7l3 1-1 2h-2v3h-4v-2h-2v2c-3.722 1.54-7.457 2.836-11.312 4-2.688 1-2.688 1-5.688 4l-2-1c6.598-6.392 13.725-12.014 20.996-17.617C695 605 695 605 698 602"/><path fill="#d5917a" d="M361 319v1c-2.52.136-5.04.232-7.562.313-8.143.453-12.627 1.876-18.438 7.687l-4 1c-1 3-1 3 0 6l-4 1-1.562 3.688L324 343l-3-2c-2.354.589-4.69 1.257-7 2h-3c31.65-27.67 31.65-27.67 50-24"/><path fill="#d3856c" d="M707 417c4 .75 4 .75 8 2v3l5 1-1 3h5l1 2 4.563-.125L734 428v4h2c1.938 4.563 1.938 4.563 3 9-5.458-1.092-6.884-2.266-10.937-5.875-5.989-5.235-12.156-10.156-18.458-15.008L707 418z"/><path fill="#d2866d" d="M864 537h3v2l3 1c-7.886 6.818-15.783 13.584-24 20l-4.062 3.25L839 565l-1-4h5v-4h2v-2h2l1-3h4l-2-1 1-3h3l3-3h2v-2h2l2-5z"/><path fill="#d58d75" d="M131 498h1c.388 1.99.708 3.994 1 6l.531 3.578c.373 2.718.682 5.444.969 8.172l.5 3.25 2 1 1 3 2.688-.5c3.312-.5 3.312-.5 6.687.563L150 525v6l1 5c-7.906-3.953-14.336-10.126-18.75-17.75-1.617-6.792-1.816-13.296-1.25-20.25"/><path fill="#d18770" d="M591 255h2v2l2 1c-1.798 1.35-3.672 2.597-5.562 3.813-6.387 4.291-11.91 9.08-17.465 14.39-2.9 2.727-5.891 5.28-8.973 7.797-.625-3-.625-3-1-6h2v2h2l-1-3h4v-6h4l1-4h5l1-5h4v-3c4-2 4-2 7-2z"/><path fill="#d18971" d="m343 391 5 1c-6.417 6.676-13.784 12.225-21 18l-3.902 3.21-3.536 2.853-3.183 2.597L314 420l-1-4h2l1-4 3.063-.5L322 411v-4c4-2 4-2 7-2v-2h2v-2h3v-2l2-1v-2l5-2z"/><path fill="#cf7a5f" d="M403 481h5v5h3l-2 4h-2l2 5h-2c-2 6.889-2 6.889-2 10h-3c-.582-4.234-.582-4.234-.812-9.75l-.27-5.484C401 485 401 485 403 481"/><path fill="#d3836a" d="m811 331 3 1 .938 3.438L816 339l4 2 2-1v2h2v-4h2v6h-2l-1.5 4.5-1.5 4.5h-2q-.063 4.5 0 9h-1a230 230 0 0 1-1.312-7.187c-1.35-7.52-3.347-14.549-5.688-21.813z"/><path fill="#d0846c" d="M274 250c.91 2.742.91 2.742 1 6-2.254 2.133-2.254 2.133-5.562 4.125-6.704 4.282-12.574 9.122-18.54 14.371C248 277 248 277 245 279v-5h3l1-5c4-2 4-2 8-2l1-5 3 1v-3h4v-2h4l-1-5c5-3 5-3 6-3"/><path fill="#d18066" d="M813 228c7.507 6.202 15.347 13 21 21-1 2-1 2-4 4-2.375-2.125-2.375-2.125-5-5l-2.75-1.875c-3.003-2.836-2.865-5.12-3.25-9.125h-2c-4-6.353-4-6.353-4-9"/><path fill="#d3917b" d="M716 346c4.289 2.75 8.15 5.728 12 9.063 5.833 4.996 11.816 9.75 17.906 14.43 2.901 2.35 5.51 4.816 8.094 7.507-5.75-1.75-5.75-1.75-8-4l-1-2-3.375-.437c-4.414-.685-5.57-2.509-8.625-5.563v-4h-3v-2h-2v-2h-3v-2h-4l-1-4-3-1z"/><path fill="#d28269" d="M485 312c5 2 5 2 9 6 3.847 2.21 6.569 3.114 11 4 .27 2.941.27 2.941-.187 6.563l-.418 3.628L504 335c-6.74-6.522-13.254-13.586-19-21z"/><path fill="#d38a72" d="m864 467 6 3v2l4 2a228 228 0 0 1 6.563 5.375l3.44 2.898C887 485 887 485 890 489l-1 2c-2.562-1.75-2.562-1.75-5-4v-2l-3.687.25c-4.313-.25-4.313-.25-7.25-3-1.988-3.132-3.063-5.489-3.063-9.25l-5-2z"/><path fill="#d2876f" d="M836 444c4.244 2.122 7.125 4.564 10.688 7.688 4.182 3.643 8.367 7.182 12.812 10.5L863 465l-2 1-3-1v-2c-3.333-.043-6.667-.04-10 0l-2-1v-8l-5-1-1-4-3-1z"/><path fill="#d38c74" d="M237.125 283.875 241 284l-2.562 3.375C231.02 297.354 223.643 307.394 219 319h-1c.188-4.937.188-4.937 1-10l4-1v-4h2l-1-4h3v-4h2v-3h3l-2-3c1.335-5.34 1.56-5.956 7.125-6.125M233 287v3Z"/><path fill="#d3856c" d="M358 630c4.522 2.261 7.787 5.022 11.625 8.313l4.04 3.425C377 645 377 645 379 650l-5-2v4h-2v-2h-3c1-3 1-3 2-5h-5v-2l-2-1v-2c-2-4-2-4-5-6z"/><path fill="#daa594" d="M880 368h1c2.005 38.097 2.005 38.097-2 50-4.59-1.147-6.493-2.823-10.062-5.875l-3.16-2.68A125 125 0 0 1 860 404c3.5.313 3.5.313 7 1v3l5 1v2l4 1c3.168-7.92 2.942-16.19 3.246-24.633l.129-3.57q.124-3.604.233-7.21c.094-2.864.238-5.726.392-8.587"/><path fill="#dba694" d="M144 358h1c.078 2.58.083 5.161.063 7.742l-.024 4.922-.078 10.305c-.077 16.356-.077 16.356 1.039 24.031l1 1q.062 4.5 0 9l2-4h6l-7 7h-3c-5.067-17.503-3.825-42.206-1-60"/><path fill="#d18067" d="m762 261 3 1v2l4.5 1 4.5 1v2l2 1-2 1c4 2 4 2 8 2v2l2 1c-.937 3.438-.937 3.438-3 6-2.875-1.937-2.875-1.937-7-6a2110 2110 0 0 0-10.5-8.512L761 264z"/><path fill="#d49581" d="M774 200c14.237 5.695 27.959 16.4 39 27l-2 1c-5-3-5-3-6-6l-5-2-2-1v-2h-2c-2-2-2-2-3-4l-2.687-.312c-4.22-.876-6.263-2.71-9.313-5.688v-2h-3v-2l-3 1z"/><path fill="#d38d76" d="m244 397 2 1a195 195 0 0 1-6 7l-2 3-5 1c-2.238 2.285-2.238 2.285-4.312 5.063-.35.459-.35.459-2.114 2.785L225 419h2v2c-2.662.367-5.33.695-8 1-2.017.612-4.026 1.26-6 2 9.23-9.476 19.621-17.823 30-26z"/><path fill="#d58b74" d="M643 337c1 4 1 4 .813 8.75L644 350h4l-1 3 1 4h-3v2l5-1v3h-2q.376 4.016 1 8c-6.13-6.13-7.853-11.172-8.187-19.875.164-4.493.722-7.912 2.187-12.125"/><path fill="#d48b73" d="M547 861h2l1 4a156 156 0 0 1-9.187 9.563l-2.659 2.615c-3.61 3.528-7.107 6.787-11.154 9.822l-3-1h2v-3h3v-3h2v-3h3l1-4c2-2 2-2 5.063-2.312L543 870l1-5z"/><path fill="#d07f65" d="m377 673 4 1c-1.61 8.053-7.54 13.193-14 18h-2v-3h2l-1-4 4-4v-6l4 2v2h2l2-4-2-1z"/><path fill="#d3876f" d="m669 626 2 1c-2.03 3.534-3.585 5.724-7 8l-1 3 2 1-1 3-1-2c-2.617 1.117-2.617 1.117-5.875 2.875C651.309 646 651.309 646 648 646c2.072-4.143 3.558-5.515 7.125-8.312 3.586-2.842 7.063-5.723 10.438-8.813z"/><path fill="#d68f77" d="m470 860 8 4v3l3.25-1.187L485 865c2.5 2.625 2.5 2.625 4 6l-1 4h3v6c-5.047-4.229-9.787-8.652-14.437-13.312l-3.747-3.739C470 861 470 861 470 860"/><path fill="#d2866f" d="M226 484c5 1 5 1 7 3-2.55 2.32-2.55 2.32-6.312 5.125-4.544 3.427-8.841 6.864-12.938 10.813L210 506l-2-4 3-1v-2h3v-2h2v-2l2-1 1-3h4v-2h3z"/><path fill="#d08b76" d="M624 239c3.5-.125 3.5-.125 7 0l-2 1v2c-1.968.793-3.979 1.48-6 2.125-7.273 2.469-13.912 5.726-20.7 9.3C599 255 599 255 596 255l1-3 3.063-.5L603 251v-3a150 150 0 0 1 6-1v-2h2v-2h9v-2h4z"/><path fill="#d2876f" d="M185 256c1 4 1 4 0 6h-2l1 2h3v2l-3.375 2.375C180 271 180 271 178 275h-3l-1 3-2 1-1 3h-2c3.768-9.42 9.992-17.86 16-26"/><path fill="#d48b73" d="M665 741h3l-1 5-3 1-2 4a188 188 0 0 1-6.062 6.25l-3.286 3.266C650 763 650 763 649 763c-.687-3.5-.687-3.5-1-7h2v-4h2v3l3-1 1-4h2l1-2h2l1-4 4 1z"/><path fill="#d08c76" d="M694 233c4-.187 4-.187 8 0v2c3.797.712 7.593 1.058 11.438 1.438L717 237v2q4.998 1.011 10 2c3.563 1.438 3.563 1.438 6 3l1 3-3.672-1.246c-7.326-2.412-14.705-4.641-22.086-6.88l-3.383-1.034-3.047-.926c-2.643-.86-5.232-1.882-7.812-2.914z"/><path fill="#d48970" d="m795 521 2 1a149 149 0 0 1-4 5l-1 3-2 2v2h2v2h-2v2h-2l-2-3-5 1v3c-3.5.688-3.5.688-7 1 4.767-4.926 9.874-9.456 15-14l3.5-3.125z"/><path fill="#d48e77" d="M211 331h2c-.55 3.024-1.263 6.017-2 9q-1.038 4.311-2.062 8.625l-1.036 4.29C207 357 207 357 206.442 361.022L206 364h-1c-.27-3.588-.472-7.156-.625-10.75l-.156-3.078c-.193-4.307-.27-7.967.781-12.172h3l2-5z"/><path fill="#d1856e" d="M485 224c8.309 5.752 17.434 12.868 22 22h-3l-3-3v-2h-3v-4l-5 1-1 2-1-3-3-1 2-4c-2.375-3.125-2.375-3.125-5-6zm11 17 2 1Z"/><path fill="#d49681" d="m594 189 2 1c-5 3-5 3-7 3v2c-7.176 4-7.176 4-11 4v2l-3.437.438L571 202l-1 3c-3.812 2.75-3.812 2.75-8 5l-4-1c23.39-15.797 23.39-15.797 36-20"/><path fill="#d99d88" d="m353 740 3 2.688c4 3.312 4 3.312 8.125 5.875 3.536 2.224 6.192 4.251 8.875 7.437v3h2v2h2v2h2v2h2l1 5c-5.235-4.273-9.586-8.894-14-14l-2-1v-2l-4-2a104 104 0 0 1-4.75-4.5l-2.422-2.406C353 742 353 742 353 740"/><path fill="#d88e78" d="M511 482c3.264 3.264 2.302 6.96 2.313 11.438l.05 5.183C513 503 513 503 510 506c-4-8-4-8-3-13l4-2c.25-4.625.25-4.625 0-9"/><path fill="#d4937d" d="m685 321 5 3-4 1v-2c-4.923-.194-9.208-.198-14 1l-4-3c-3.687-.312-3.687-.312-7 0l-1 2-2-2c9.92-4.16 16.982-3.513 27 0"/><path fill="#d69a87" d="M505 665c6.415 3.813 12.2 8.387 18.063 13 5.6 4.399 11.225 8.747 16.937 13l-4 1-1-3h-3v-2l-5-2-1-2-3-1-1-2-3-1-1-2h-3c-3-4-3-4-4-6l-4-1v-2h-3z"/><path fill="#d27c61" d="m476 297 3 3v2h2v-2h3l1 3 3 3 1 4-5 2c-4.288-4.224-7.32-7.639-10-13z"/><path fill="#d2866e" d="M252 464h2l2 4c-3.269 2.884-6.5 5.43-10 8a844 844 0 0 0-5.562 4.5C236 484 236 484 235 484v-6c4-2 4-2 8-3v-2h2v-2l3-3 1-2h2v2h2z"/><path fill="#d79782" d="m772 540 2 1a282 282 0 0 1-7 8l-1 2-2.75.75c-4.12 1.585-5.712 3.697-8.25 7.25l-1 3c-3.785 2.236-6.62 3.124-11 4 8.188-8.277 16.741-15.946 26-23z"/><path fill="#d38a72" d="m203 235 1 2-2 5h-3a783 783 0 0 0-2 9l-3 2-1-1-1 2a101 101 0 0 1-6 2c2.228-4.456 4.891-8.114 8-12h2l2-4c2.563-2.875 2.563-2.875 5-5"/><path fill="#d6927d" d="M300 180v2a212 212 0 0 1-10 2l2 2c-6.258 3.488-10.924 4.308-18 4-2.008.282-4.014.593-6 1 4.955-3.716 10.186-5.292 16-7.187l3.313-1.116C295.479 180 295.479 180 300 180"/><path fill="#d18368" d="m656 322 2 1c.688 3.25.688 3.25 0 7-4.522 3.037-8.948 4.98-14 7 1.528-6.96 6.215-11.143 12-15"/><path fill="#d1856d" d="M575 833h4c-2.041 4.082-3.997 6.17-7.25 9.313-4.152 4.064-8 8.246-11.75 12.687h-1c0-6 0-6 2-8h3v-4l5-1v-3h4v-4z"/><path fill="#d58e77" d="M862 297c3.941 1.97 4.745 7.864 6.188 11.875l1.154 3.09c2.782 7.664 2.782 7.664 1.658 11.035l-2-5-2-1-1-3-2-1-2-5-2-4v-3h3z"/><path fill="#d38e78" d="M322 600c4.77 2.385 8.003 5.454 12 9a1107 1107 0 0 0 8.777 7.082C345 618 345 618 346 620c-2.937-.812-2.937-.812-6-2l-1-3h-3v-2h-3v-2l-5 2-2-2 1-4-4-3z"/><path fill="#d79a87" d="M612 551c3.813-.312 3.813-.312 8 0 3.8 5.067 3.402 7.736 3.375 14l.023 5.375C623 575 623 575 620 579l-2-1 1-3h2c-.132-3.299-.41-6.591-.75-9.875l-.547-5.555C619 555 619 555 617 553l-5-1z"/><path fill="#d38a72" d="m147 477 2 4-1 3h-2v2l-4.5.938L137 488v3h-2l-.5 3.5-.5 3.5h-2c.325-4.543 1.68-8.101 4-12h2v-2c4.375-3.875 4.375-3.875 9-7"/><path fill="#cc6646" d="M168 463h2c1 4 1 4 0 7l-3.25.375c-4.55.758-5.69 2.317-8.75 5.625l-4 1c1.268-5.918 4.174-8.505 9-12h4z"/><path fill="#d3886f" d="M595 813h5c-5.536 6.767-11.655 12.99-18 19h-1v-5h2l1-4h3v-2h2v-2h2v-2z"/><path fill="#d38a73" d="M696 330c4.144 2.072 7.051 4.43 10.563 7.438l3.44 2.933A125 125 0 0 1 716 346l-5-1v-2c-4-1-4-1-7.625-1.312L700 341l-2-4h-1a202 202 0 0 1-1-7"/><path fill="#d5927d" d="M408 182c6.636.521 12.369 2.95 18.438 5.5l3.083 1.262c2.51 1.04 4.997 2.134 7.479 3.238v1h-6v-2h-3.125c-5.192 0-8.578-1.135-12.875-4l-1 2v-4h-3v-2z"/><path fill="#ca856e" d="M472 697h1c.14 4.744.214 9.473.238 14.219l.025 4.372q.02 4.59.032 9.18c.017 4.708.061 9.416.105 14.124q.015 4.443.026 8.886l.053 4.309c-.008 3.307-.22 6.613-.479 9.91h-4l-1-4 3 1c.338-4.53.466-8.929.477-13.465.015-1.377.03-2.755.047-4.174.048-4.433.075-8.866.101-13.298q.054-6.645.123-13.288.04-4.147.063-8.296c.026-3.16.102-6.32.189-9.479"/><path fill="#d3907a" d="M890 491c4.415 6.622 3.445 14.306 3 22-1.437 5-1.437 5-3 8h-1v-11l-.625-3.625L888 504l2-1c.195-2.723.195-2.723.125-6.062z"/><path fill="#d28b75" d="m550 214 2 1-3 5-1 2h-2v4h-5l-1 3c-3.172 1.31-5.559 2-9 2 4.944-5.163 10.182-9.71 15.742-14.18C549 215 549 215 550 214"/><path fill="#d69d8b" d="M716 178c8.099.218 15.355 2.842 22.938 5.438l3.728 1.236c9.067 3.059 9.067 3.059 11.334 5.326l-4 1v-2h-7v-2c-2.625-.781-2.625-.781-6-1.5s-3.375-.719-6-1.5v-2h-7v-2h-8z"/><path fill="#d28a73" d="M308 241q-3.812 1.44-7.625 2.875l-4.29 1.617L292 247l-3.52 1.367L286 249c-.062-2.75-.062-2.75 1-6 3.704-2.47 6.082-2.426 10.5-2.687l4.031-.262C305 240 305 240 308 241"/><path fill="#d28972" d="m884 520 5 1c-3.563 7.126-9.484 11.612-16 16v-5h2v-2h2l1-3h3c2-4 2-4 3-7"/><path fill="#d38d77" d="M838 256c3.98 3.719 6.932 7.61 9.875 12.188l2.43 3.73L852 275l-1 2c-4.69-2.55-6.16-4.267-9-9l-1-4-1.562-3.125C838 258 838 258 838 256"/><path fill="#d8a18e" d="M491 881c7.47 1.47 7.47 1.47 11 5 3.777.379 7.404.604 11.188.688l3.138.103c2.558.083 5.116.147 7.674.209-5.156 3.437-11.155 3.392-17.145 2.566-6.26-1.394-10.912-3.297-15.855-7.566z"/><path fill="#d8957f" d="M669 689c2.366.92 4.699 1.929 7 3 1.995.363 3.994.706 6 1v1c-8.08 1.616-15.058 1.2-23-1l-2-2 3.75.125C665 691 665 691 669 689"/><path fill="#d38870" d="m716 587 5 1c-3.282 5.592-7.132 6.884-13 9l-2 4c-3.125.75-3.125.75-6 1 3.474-3.486 6.946-6.97 10.5-10.375l2.781-2.71c.897-.633 1.795-1.264 2.719-1.915"/><path fill="#d2876e" d="m200 433 2 1-1 2 2 1c-5.228 5.843-9.16 8.347-17 9 2.738-3.63 5.581-6.53 9.125-9.375l2.633-2.148z"/><path fill="#cf7559" d="m145 401 2 1v2h2v2q5.489.625 11 1c-4.387 4.387-5.288 4.231-11 5v3h-2a211 211 0 0 1-1-9z"/><path fill="#d69783" d="M235 527c5.8 4.307 11.5 8.716 17.125 13.25l4.633 3.703L260 547l-2 2-1-2-4-2v-2l-4-1a141 141 0 0 1-5-5c-4.54-4-4.54-4-8-4-.687-3-.687-3-1-6"/><path fill="#d3876e" d="M439 825h2v2h2v2l3-1v5l4-1v6h4v5c-5.681-4.714-10.981-9.59-16-15z"/><path fill="#cf7f66" d="m573 267 4 2c-2.077 4.154-4.254 6.587-7.5 9.875l-2.969 3.055L564 284l-2-2v-4h2v2h2l-1-3h4v-6h4z"/></svg>